<?xml version="1.0" encoding="UTF-8" standalone="no"?>
<!DOCTYPE svg PUBLIC "-//W3C//DTD SVG 1.1//EN"
 "http://www.w3.org/Graphics/SVG/1.1/DTD/svg11.dtd">
<!-- Generated by graphviz version 2.40.1 (20161225.0304)
 -->
<!-- Title: G Pages: 1 -->
<svg width="2056pt" height="1133pt"
 viewBox="0.00 0.00 2056.08 1132.69" xmlns="http://www.w3.org/2000/svg" xmlns:xlink="http://www.w3.org/1999/xlink">
<g id="graph0" class="graph" transform="scale(1 1) rotate(0) translate(4 1128.6889)">
<title>G</title>
<polygon fill="#ffffff" stroke="transparent" points="-4,4 -4,-1128.6889 2052.0806,-1128.6889 2052.0806,4 -4,4"/>
<!-- n1 -->
<g id="node1" class="node">
<title>n1</title>
<polygon fill="none" stroke="#000000" points="274.959,-329.6889 .0137,-329.6889 .0137,-293.6889 274.959,-293.6889 274.959,-329.6889"/>
<text text-anchor="middle" x="137.4863" y="-307.4889" font-family="Times,serif" font-size="14.00" fill="#000000">ACT[com.apk.com.lovePositions.AllActivity]</text>
</g>
<!-- n2 -->
<g id="node2" class="node">
<title>n2</title>
<polygon fill="none" stroke="#000000" points="1118.0516,-508.6889 831.9045,-508.6889 831.9045,-472.6889 1118.0516,-472.6889 1118.0516,-508.6889"/>
<text text-anchor="middle" x="974.978" y="-486.4889" font-family="Times,serif" font-size="14.00" fill="#000000">ACT[com.apk.com.lovePositions.ViewActivity]</text>
</g>
<!-- n1&#45;&gt;n2 -->
<g id="edge2" class="edge">
<title>n1&#45;&gt;n2</title>
<path fill="none" stroke="#000000" d="M143.8108,-329.9683C160.2257,-374.1676 208.8704,-486.3715 292.9727,-529.6889 502.1301,-637.4167 796.6673,-554.7661 918.6636,-512.101"/>
<polygon fill="#000000" stroke="#000000" points="919.9323,-515.3647 928.1903,-508.7272 917.5955,-508.7663 919.9323,-515.3647"/>
<text text-anchor="middle" x="514.5664" y="-669.4889" font-family="Times,serif" font-size="14.00" fill="#000000">src: ACT[com.apk.com.lovePositions.AllActivity]</text>
<text text-anchor="middle" x="514.5664" y="-655.4889" font-family="Times,serif" font-size="14.00" fill="#000000">tgt: ACT[com.apk.com.lovePositions.ViewActivity]</text>
<text text-anchor="middle" x="514.5664" y="-641.4889" font-family="Times,serif" font-size="14.00" fill="#000000">class: class android.widget.GridView </text>
<text text-anchor="middle" x="514.5664" y="-627.4889" font-family="Times,serif" font-size="14.00" fill="#000000">widgetID: com.droiddream.lovePositions:id/all_gird </text>
<text text-anchor="middle" x="514.5664" y="-613.4889" font-family="Times,serif" font-size="14.00" fill="#000000">handler: Handler (android.view.ViewRootImpl$ViewRootHandler) {558bce5} </text>
<text text-anchor="middle" x="514.5664" y="-599.4889" font-family="Times,serif" font-size="14.00" fill="#000000">event: CLICK </text>
<text text-anchor="middle" x="514.5664" y="-585.4889" font-family="Times,serif" font-size="14.00" fill="#000000">hash: 7965857 </text>
</g>
<!-- n1&#45;&gt;n2 -->
<g id="edge10" class="edge">
<title>n1&#45;&gt;n2</title>
<path fill="none" stroke="#000000" d="M158.3604,-329.7298C186.6566,-352.938 239.7859,-392.2184 292.9727,-408.6889 387.1375,-437.8493 638.6962,-412.9204 736.1602,-427.6889 796.2501,-436.7942 863.0074,-455.1287 910.6298,-469.6818"/>
<polygon fill="#000000" stroke="#000000" points="909.6041,-473.028 920.1915,-472.6315 911.6676,-466.3391 909.6041,-473.028"/>
<text text-anchor="middle" x="514.5664" y="-514.4889" font-family="Times,serif" font-size="14.00" fill="#000000">src: ACT[com.apk.com.lovePositions.AllActivity]</text>
<text text-anchor="middle" x="514.5664" y="-500.4889" font-family="Times,serif" font-size="14.00" fill="#000000">tgt: ACT[com.apk.com.lovePositions.ViewActivity]</text>
<text text-anchor="middle" x="514.5664" y="-486.4889" font-family="Times,serif" font-size="14.00" fill="#000000">class: class android.widget.GridView </text>
<text text-anchor="middle" x="514.5664" y="-472.4889" font-family="Times,serif" font-size="14.00" fill="#000000">widgetID: com.droiddream.lovePositions:id/all_gird </text>
<text text-anchor="middle" x="514.5664" y="-458.4889" font-family="Times,serif" font-size="14.00" fill="#000000">handler: Handler (android.view.ViewRootImpl$ViewRootHandler) {558bce5} </text>
<text text-anchor="middle" x="514.5664" y="-444.4889" font-family="Times,serif" font-size="14.00" fill="#000000">event: CLICK </text>
<text text-anchor="middle" x="514.5664" y="-430.4889" font-family="Times,serif" font-size="14.00" fill="#000000">hash: 7965857 </text>
</g>
<!-- n0 -->
<g id="node3" class="node">
<title>n0</title>
<polygon fill="none" stroke="#000000" points="1970.3977,-187.6889 1684.1277,-187.6889 1684.1277,-151.6889 1970.3977,-151.6889 1970.3977,-187.6889"/>
<text text-anchor="middle" x="1827.2627" y="-165.4889" font-family="Times,serif" font-size="14.00" fill="#000000">ACT[com.apk.com.lovePositions.MainActivity]</text>
</g>
<!-- n1&#45;&gt;n0 -->
<g id="edge12" class="edge">
<title>n1&#45;&gt;n0</title>
<path fill="none" stroke="#000000" d="M164.1814,-293.5849C194.1008,-274.3239 244.7551,-244.735 292.9727,-230.6889 687.3753,-115.7967 803.3851,-168.4834 1213.7959,-150.6889 1411.2814,-142.1264 1461.1953,-139.6104 1658.5557,-150.6889 1663.4481,-150.9635 1668.4166,-151.2826 1673.4307,-151.6392"/>
<polygon fill="#000000" stroke="#000000" points="1673.5414,-155.1575 1683.7769,-152.4217 1674.0693,-148.1775 1673.5414,-155.1575"/>
<text text-anchor="middle" x="974.978" y="-200.4889" font-family="Times,serif" font-size="14.00" fill="#000000">src: ACT[com.apk.com.lovePositions.AllActivity]</text>
<text text-anchor="middle" x="974.978" y="-186.4889" font-family="Times,serif" font-size="14.00" fill="#000000">tgt: ACT[com.apk.com.lovePositions.MainActivity]</text>
<text text-anchor="middle" x="974.978" y="-172.4889" font-family="Times,serif" font-size="14.00" fill="#000000">event: BACK </text>
<text text-anchor="middle" x="974.978" y="-158.4889" font-family="Times,serif" font-size="14.00" fill="#000000">hash: BACK </text>
</g>
<!-- n2&#45;&gt;n1 -->
<g id="edge9" class="edge">
<title>n2&#45;&gt;n1</title>
<path fill="none" stroke="#000000" d="M952.2981,-472.5599C911.7534,-441.3587 822.9392,-378.3875 736.1602,-352.6889 641.6007,-324.6862 391.2473,-337.9191 292.9727,-329.6889 290.4255,-329.4756 287.8556,-329.2537 285.268,-329.024"/>
<polygon fill="#000000" stroke="#000000" points="285.4888,-325.5297 275.211,-328.102 284.8497,-332.5004 285.4888,-325.5297"/>
<text text-anchor="middle" x="514.5664" y="-397.4889" font-family="Times,serif" font-size="14.00" fill="#000000">src: ACT[com.apk.com.lovePositions.ViewActivity]</text>
<text text-anchor="middle" x="514.5664" y="-383.4889" font-family="Times,serif" font-size="14.00" fill="#000000">tgt: ACT[com.apk.com.lovePositions.AllActivity]</text>
<text text-anchor="middle" x="514.5664" y="-369.4889" font-family="Times,serif" font-size="14.00" fill="#000000">event: BACK </text>
<text text-anchor="middle" x="514.5664" y="-355.4889" font-family="Times,serif" font-size="14.00" fill="#000000">hash: BACK </text>
</g>
<!-- n2&#45;&gt;n1 -->
<g id="edge11" class="edge">
<title>n2&#45;&gt;n1</title>
<path fill="none" stroke="#000000" d="M962.9312,-472.5712C931.8343,-427.667 843.7253,-311.8226 736.1602,-269.6889 551.5819,-197.389 310.6884,-255.7531 199.1356,-290.4976"/>
<polygon fill="#000000" stroke="#000000" points="197.8752,-287.2252 189.3938,-293.5747 199.9836,-293.9002 197.8752,-287.2252"/>
<text text-anchor="middle" x="514.5664" y="-314.4889" font-family="Times,serif" font-size="14.00" fill="#000000">src: ACT[com.apk.com.lovePositions.ViewActivity]</text>
<text text-anchor="middle" x="514.5664" y="-300.4889" font-family="Times,serif" font-size="14.00" fill="#000000">tgt: ACT[com.apk.com.lovePositions.AllActivity]</text>
<text text-anchor="middle" x="514.5664" y="-286.4889" font-family="Times,serif" font-size="14.00" fill="#000000">event: BACK </text>
<text text-anchor="middle" x="514.5664" y="-272.4889" font-family="Times,serif" font-size="14.00" fill="#000000">hash: BACK </text>
</g>
<!-- n2&#45;&gt;n2 -->
<g id="edge7" class="edge">
<title>n2&#45;&gt;n2</title>
<path fill="none" stroke="#000000" d="M947.2388,-508.8416C942.9712,-518.228 952.2176,-526.6889 974.978,-526.6889 988.8477,-526.6889 997.699,-523.547 1001.5321,-518.9685"/>
<polygon fill="#000000" stroke="#000000" points="1005.0311,-519.1807 1002.7173,-508.8416 998.0786,-518.367 1005.0311,-519.1807"/>
<text text-anchor="middle" x="974.978" y="-613.4889" font-family="Times,serif" font-size="14.00" fill="#000000">src: ACT[com.apk.com.lovePositions.ViewActivity]</text>
<text text-anchor="middle" x="974.978" y="-599.4889" font-family="Times,serif" font-size="14.00" fill="#000000">tgt: ACT[com.apk.com.lovePositions.ViewActivity]</text>
<text text-anchor="middle" x="974.978" y="-585.4889" font-family="Times,serif" font-size="14.00" fill="#000000">class: class android.widget.ImageButton </text>
<text text-anchor="middle" x="974.978" y="-571.4889" font-family="Times,serif" font-size="14.00" fill="#000000">widgetID: com.droiddream.lovePositions:id/next </text>
<text text-anchor="middle" x="974.978" y="-557.4889" font-family="Times,serif" font-size="14.00" fill="#000000">handler: Handler (android.view.ViewRootImpl$ViewRootHandler) {b4b80e} </text>
<text text-anchor="middle" x="974.978" y="-543.4889" font-family="Times,serif" font-size="14.00" fill="#000000">event: CLICK </text>
<text text-anchor="middle" x="974.978" y="-529.4889" font-family="Times,serif" font-size="14.00" fill="#000000">hash: 40485648 </text>
</g>
<!-- n2&#45;&gt;n2 -->
<g id="edge8" class="edge">
<title>n2&#45;&gt;n2</title>
<path fill="none" stroke="#000000" d="M940.7891,-508.9151C900.8408,-547.0023 912.2371,-624.6889 974.978,-624.6889 1033.7976,-624.6889 1047.4901,-556.4097 1016.0555,-516.4918"/>
<polygon fill="#000000" stroke="#000000" points="1018.4837,-513.9597 1009.1669,-508.9151 1013.3043,-518.6687 1018.4837,-513.9597"/>
<text text-anchor="middle" x="974.978" y="-711.4889" font-family="Times,serif" font-size="14.00" fill="#000000">src: ACT[com.apk.com.lovePositions.ViewActivity]</text>
<text text-anchor="middle" x="974.978" y="-697.4889" font-family="Times,serif" font-size="14.00" fill="#000000">tgt: ACT[com.apk.com.lovePositions.ViewActivity]</text>
<text text-anchor="middle" x="974.978" y="-683.4889" font-family="Times,serif" font-size="14.00" fill="#000000">class: class android.widget.ImageButton </text>
<text text-anchor="middle" x="974.978" y="-669.4889" font-family="Times,serif" font-size="14.00" fill="#000000">widgetID: com.droiddream.lovePositions:id/pre </text>
<text text-anchor="middle" x="974.978" y="-655.4889" font-family="Times,serif" font-size="14.00" fill="#000000">handler: Handler (android.view.ViewRootImpl$ViewRootHandler) {b4b80e} </text>
<text text-anchor="middle" x="974.978" y="-641.4889" font-family="Times,serif" font-size="14.00" fill="#000000">event: CLICK </text>
<text text-anchor="middle" x="974.978" y="-627.4889" font-family="Times,serif" font-size="14.00" fill="#000000">hash: 215043027 </text>
</g>
<!-- n2&#45;&gt;n2 -->
<g id="edge14" class="edge">
<title>n2&#45;&gt;n2</title>
<path fill="none" stroke="#000000" d="M935.2432,-509.0699C862.0065,-566.27 875.2515,-722.6889 974.978,-722.6889 1071.0038,-722.6889 1086.8474,-577.6638 1022.5089,-515.8347"/>
<polygon fill="#000000" stroke="#000000" points="1024.5596,-512.9803 1014.7128,-509.0699 1019.9719,-518.2673 1024.5596,-512.9803"/>
<text text-anchor="middle" x="974.978" y="-809.4889" font-family="Times,serif" font-size="14.00" fill="#000000">src: ACT[com.apk.com.lovePositions.ViewActivity]</text>
<text text-anchor="middle" x="974.978" y="-795.4889" font-family="Times,serif" font-size="14.00" fill="#000000">tgt: ACT[com.apk.com.lovePositions.ViewActivity]</text>
<text text-anchor="middle" x="974.978" y="-781.4889" font-family="Times,serif" font-size="14.00" fill="#000000">class: class android.widget.ImageButton </text>
<text text-anchor="middle" x="974.978" y="-767.4889" font-family="Times,serif" font-size="14.00" fill="#000000">widgetID: com.droiddream.lovePositions:id/next </text>
<text text-anchor="middle" x="974.978" y="-753.4889" font-family="Times,serif" font-size="14.00" fill="#000000">handler: Handler (android.view.ViewRootImpl$ViewRootHandler) {68d62bf} </text>
<text text-anchor="middle" x="974.978" y="-739.4889" font-family="Times,serif" font-size="14.00" fill="#000000">event: CLICK </text>
<text text-anchor="middle" x="974.978" y="-725.4889" font-family="Times,serif" font-size="14.00" fill="#000000">hash: 18315289 </text>
</g>
<!-- n2&#45;&gt;n0 -->
<g id="edge15" class="edge">
<title>n2&#45;&gt;n0</title>
<path fill="none" stroke="#000000" d="M1024.0594,-472.6063C1071.8045,-455.8543 1146.7477,-431.7624 1213.7959,-419.6889 1311.288,-402.1333 1571.2439,-436.4816 1658.5557,-389.6889 1739.3233,-346.4034 1793.2661,-245.8242 1815.6124,-197.1084"/>
<polygon fill="#000000" stroke="#000000" points="1818.8821,-198.3707 1819.7795,-187.8139 1812.4947,-195.5069 1818.8821,-198.3707"/>
<text text-anchor="middle" x="1436.1758" y="-464.4889" font-family="Times,serif" font-size="14.00" fill="#000000">src: ACT[com.apk.com.lovePositions.ViewActivity]</text>
<text text-anchor="middle" x="1436.1758" y="-450.4889" font-family="Times,serif" font-size="14.00" fill="#000000">tgt: ACT[com.apk.com.lovePositions.MainActivity]</text>
<text text-anchor="middle" x="1436.1758" y="-436.4889" font-family="Times,serif" font-size="14.00" fill="#000000">event: BACK </text>
<text text-anchor="middle" x="1436.1758" y="-422.4889" font-family="Times,serif" font-size="14.00" fill="#000000">hash: BACK </text>
</g>
<!-- n3 -->
<g id="node4" class="node">
<title>n3</title>
<polygon fill="none" stroke="#000000" points="1978.177,-811.6889 1676.3483,-811.6889 1676.3483,-775.6889 1978.177,-775.6889 1978.177,-811.6889"/>
<text text-anchor="middle" x="1827.2627" y="-789.4889" font-family="Times,serif" font-size="14.00" fill="#000000">ACT[com.apk.com.lovePositions.ContentActivity]</text>
</g>
<!-- n2&#45;&gt;n3 -->
<g id="edge3" class="edge">
<title>n2&#45;&gt;n3</title>
<path fill="none" stroke="#000000" d="M980.9295,-509.0241C1001.5451,-569.0787 1076.277,-760.1092 1213.7959,-831.6889 1301.4662,-877.322 1560.3259,-842.6148 1658.5557,-831.6889 1689.9218,-828.2001 1723.9738,-821.1695 1753.2176,-814.0939"/>
<polygon fill="#000000" stroke="#000000" points="1754.068,-817.4891 1762.9399,-811.6976 1752.3928,-810.6925 1754.068,-817.4891"/>
<text text-anchor="middle" x="1436.1758" y="-940.4889" font-family="Times,serif" font-size="14.00" fill="#000000">src: ACT[com.apk.com.lovePositions.ViewActivity]</text>
<text text-anchor="middle" x="1436.1758" y="-926.4889" font-family="Times,serif" font-size="14.00" fill="#000000">tgt: ACT[com.apk.com.lovePositions.ContentActivity]</text>
<text text-anchor="middle" x="1436.1758" y="-912.4889" font-family="Times,serif" font-size="14.00" fill="#000000">class: class android.widget.ImageButton </text>
<text text-anchor="middle" x="1436.1758" y="-898.4889" font-family="Times,serif" font-size="14.00" fill="#000000">widgetID: com.droiddream.lovePositions:id/des </text>
<text text-anchor="middle" x="1436.1758" y="-884.4889" font-family="Times,serif" font-size="14.00" fill="#000000">handler: Handler (android.view.ViewRootImpl$ViewRootHandler) {b4b80e} </text>
<text text-anchor="middle" x="1436.1758" y="-870.4889" font-family="Times,serif" font-size="14.00" fill="#000000">event: CLICK </text>
<text text-anchor="middle" x="1436.1758" y="-856.4889" font-family="Times,serif" font-size="14.00" fill="#000000">hash: 197176845 </text>
</g>
<!-- n2&#45;&gt;n3 -->
<g id="edge5" class="edge">
<title>n2&#45;&gt;n3</title>
<path fill="none" stroke="#000000" d="M987.3893,-508.7742C1018.9969,-553.0715 1107.5872,-666.5899 1213.7959,-710.6889 1305.159,-748.6239 1561.6541,-709.7796 1658.5557,-729.6889 1701.286,-738.4682 1747.4483,-756.6335 1780.6653,-771.3758"/>
<polygon fill="#000000" stroke="#000000" points="1779.5527,-774.7133 1790.1079,-775.6292 1782.4277,-768.3309 1779.5527,-774.7133"/>
<text text-anchor="middle" x="1436.1758" y="-816.4889" font-family="Times,serif" font-size="14.00" fill="#000000">src: ACT[com.apk.com.lovePositions.ViewActivity]</text>
<text text-anchor="middle" x="1436.1758" y="-802.4889" font-family="Times,serif" font-size="14.00" fill="#000000">tgt: ACT[com.apk.com.lovePositions.ContentActivity]</text>
<text text-anchor="middle" x="1436.1758" y="-788.4889" font-family="Times,serif" font-size="14.00" fill="#000000">class: class android.widget.ImageButton </text>
<text text-anchor="middle" x="1436.1758" y="-774.4889" font-family="Times,serif" font-size="14.00" fill="#000000">widgetID: com.droiddream.lovePositions:id/des </text>
<text text-anchor="middle" x="1436.1758" y="-760.4889" font-family="Times,serif" font-size="14.00" fill="#000000">handler: Handler (android.view.ViewRootImpl$ViewRootHandler) {b4b80e} </text>
<text text-anchor="middle" x="1436.1758" y="-746.4889" font-family="Times,serif" font-size="14.00" fill="#000000">event: CLICK </text>
<text text-anchor="middle" x="1436.1758" y="-732.4889" font-family="Times,serif" font-size="14.00" fill="#000000">hash: 197176845 </text>
</g>
<!-- n2&#45;&gt;n3 -->
<g id="edge22" class="edge">
<title>n2&#45;&gt;n3</title>
<path fill="none" stroke="#000000" d="M1008.1561,-508.8501C1053.1899,-532.4553 1136.8882,-572.6655 1213.7959,-589.6889 1262.0898,-600.3787 1621.2365,-576.2259 1658.5557,-608.6889 1691.9676,-637.7531 1651.0254,-670.5047 1676.5557,-706.6889 1697.6275,-736.5542 1732.4423,-757.6222 1763.304,-771.5378"/>
<polygon fill="#000000" stroke="#000000" points="1762.1683,-774.8602 1772.7353,-775.6286 1764.9539,-768.4383 1762.1683,-774.8602"/>
<text text-anchor="middle" x="1436.1758" y="-695.4889" font-family="Times,serif" font-size="14.00" fill="#000000">src: ACT[com.apk.com.lovePositions.ViewActivity]</text>
<text text-anchor="middle" x="1436.1758" y="-681.4889" font-family="Times,serif" font-size="14.00" fill="#000000">tgt: ACT[com.apk.com.lovePositions.ContentActivity]</text>
<text text-anchor="middle" x="1436.1758" y="-667.4889" font-family="Times,serif" font-size="14.00" fill="#000000">class: class android.widget.ImageButton </text>
<text text-anchor="middle" x="1436.1758" y="-653.4889" font-family="Times,serif" font-size="14.00" fill="#000000">widgetID: com.droiddream.lovePositions:id/des </text>
<text text-anchor="middle" x="1436.1758" y="-639.4889" font-family="Times,serif" font-size="14.00" fill="#000000">handler: Handler (android.view.ViewRootImpl$ViewRootHandler) {1900326} </text>
<text text-anchor="middle" x="1436.1758" y="-625.4889" font-family="Times,serif" font-size="14.00" fill="#000000">event: CLICK </text>
<text text-anchor="middle" x="1436.1758" y="-611.4889" font-family="Times,serif" font-size="14.00" fill="#000000">hash: 72892165 </text>
</g>
<!-- n0&#45;&gt;n1 -->
<g id="edge1" class="edge">
<title>n0&#45;&gt;n1</title>
<path fill="none" stroke="#000000" d="M1764.9546,-151.5846C1733.201,-142.5483 1693.9212,-131.6604 1658.5557,-122.6889 1266.2761,-23.1759 1156.2859,28.929 754.1602,-16.6889 545.1839,-40.3956 471.8151,-12.0163 292.9727,-122.6889 226.6318,-163.7425 175.4683,-243.1333 151.8384,-284.7481"/>
<polygon fill="#000000" stroke="#000000" points="148.7667,-283.0702 146.9549,-293.509 154.881,-286.4785 148.7667,-283.0702"/>
<text text-anchor="middle" x="974.978" y="-103.4889" font-family="Times,serif" font-size="14.00" fill="#000000">src: ACT[com.apk.com.lovePositions.MainActivity]</text>
<text text-anchor="middle" x="974.978" y="-89.4889" font-family="Times,serif" font-size="14.00" fill="#000000">tgt: ACT[com.apk.com.lovePositions.AllActivity]</text>
<text text-anchor="middle" x="974.978" y="-75.4889" font-family="Times,serif" font-size="14.00" fill="#000000">class: class android.widget.ImageButton </text>
<text text-anchor="middle" x="974.978" y="-61.4889" font-family="Times,serif" font-size="14.00" fill="#000000">widgetID: com.droiddream.lovePositions:id/all </text>
<text text-anchor="middle" x="974.978" y="-47.4889" font-family="Times,serif" font-size="14.00" fill="#000000">handler: Handler (android.view.ViewRootImpl$ViewRootHandler) {2a001f2} </text>
<text text-anchor="middle" x="974.978" y="-33.4889" font-family="Times,serif" font-size="14.00" fill="#000000">event: CLICK </text>
<text text-anchor="middle" x="974.978" y="-19.4889" font-family="Times,serif" font-size="14.00" fill="#000000">hash: 125284028 </text>
</g>
<!-- n0&#45;&gt;n2 -->
<g id="edge13" class="edge">
<title>n0&#45;&gt;n2</title>
<path fill="none" stroke="#000000" d="M1804.644,-187.8246C1773.7487,-211.4012 1715.6468,-251.5795 1658.5557,-268.6889 1563.7537,-297.0997 1305.9516,-255.6071 1213.7959,-291.6889 1118.7032,-328.9207 1033.7095,-419.8351 995.8387,-464.7317"/>
<polygon fill="#000000" stroke="#000000" points="993.0329,-462.6316 989.324,-472.556 998.4124,-467.1107 993.0329,-462.6316"/>
<text text-anchor="middle" x="1436.1758" y="-378.4889" font-family="Times,serif" font-size="14.00" fill="#000000">src: ACT[com.apk.com.lovePositions.MainActivity]</text>
<text text-anchor="middle" x="1436.1758" y="-364.4889" font-family="Times,serif" font-size="14.00" fill="#000000">tgt: ACT[com.apk.com.lovePositions.ViewActivity]</text>
<text text-anchor="middle" x="1436.1758" y="-350.4889" font-family="Times,serif" font-size="14.00" fill="#000000">class: class android.widget.ImageButton </text>
<text text-anchor="middle" x="1436.1758" y="-336.4889" font-family="Times,serif" font-size="14.00" fill="#000000">widgetID: com.droiddream.lovePositions:id/random </text>
<text text-anchor="middle" x="1436.1758" y="-322.4889" font-family="Times,serif" font-size="14.00" fill="#000000">handler: Handler (android.view.ViewRootImpl$ViewRootHandler) {2a001f2} </text>
<text text-anchor="middle" x="1436.1758" y="-308.4889" font-family="Times,serif" font-size="14.00" fill="#000000">event: CLICK </text>
<text text-anchor="middle" x="1436.1758" y="-294.4889" font-family="Times,serif" font-size="14.00" fill="#000000">hash: 110812741 </text>
</g>
<!-- n0&#45;&gt;n2 -->
<g id="edge21" class="edge">
<title>n0&#45;&gt;n2</title>
<path fill="none" stroke="#000000" d="M1683.8601,-161.5703C1515.3497,-153.1826 1253.5331,-144.1901 1213.7959,-166.6889 1200.265,-174.35 1204.4766,-183.7884 1195.7959,-196.6889 1126.9289,-299.0324 1036.2083,-414.3892 995.8671,-464.7976"/>
<polygon fill="#000000" stroke="#000000" points="993.1365,-462.6081 989.6106,-472.599 998.5973,-466.9875 993.1365,-462.6081"/>
<text text-anchor="middle" x="1436.1758" y="-253.4889" font-family="Times,serif" font-size="14.00" fill="#000000">src: ACT[com.apk.com.lovePositions.MainActivity]</text>
<text text-anchor="middle" x="1436.1758" y="-239.4889" font-family="Times,serif" font-size="14.00" fill="#000000">tgt: ACT[com.apk.com.lovePositions.ViewActivity]</text>
<text text-anchor="middle" x="1436.1758" y="-225.4889" font-family="Times,serif" font-size="14.00" fill="#000000">class: class android.widget.ImageButton </text>
<text text-anchor="middle" x="1436.1758" y="-211.4889" font-family="Times,serif" font-size="14.00" fill="#000000">widgetID: com.droiddream.lovePositions:id/random </text>
<text text-anchor="middle" x="1436.1758" y="-197.4889" font-family="Times,serif" font-size="14.00" fill="#000000">handler: Handler (android.view.ViewRootImpl$ViewRootHandler) {2a001f2} </text>
<text text-anchor="middle" x="1436.1758" y="-183.4889" font-family="Times,serif" font-size="14.00" fill="#000000">event: CLICK </text>
<text text-anchor="middle" x="1436.1758" y="-169.4889" font-family="Times,serif" font-size="14.00" fill="#000000">hash: 110812741 </text>
</g>
<!-- n0&#45;&gt;n0 -->
<g id="edge16" class="edge">
<title>n0&#45;&gt;n0</title>
<path fill="none" stroke="#000000" d="M1813.1519,-187.8416C1810.981,-197.228 1815.6846,-205.6889 1827.2627,-205.6889 1834.3181,-205.6889 1838.8208,-202.547 1840.7707,-197.9685"/>
<polygon fill="#000000" stroke="#000000" points="1844.273,-198.032 1841.3735,-187.8416 1837.2854,-197.6159 1844.273,-198.032"/>
<text text-anchor="middle" x="1827.2627" y="-292.4889" font-family="Times,serif" font-size="14.00" fill="#000000">src: ACT[com.apk.com.lovePositions.MainActivity]</text>
<text text-anchor="middle" x="1827.2627" y="-278.4889" font-family="Times,serif" font-size="14.00" fill="#000000">tgt: ACT[com.apk.com.lovePositions.MainActivity]</text>
<text text-anchor="middle" x="1827.2627" y="-264.4889" font-family="Times,serif" font-size="14.00" fill="#000000">class: class android.widget.ImageButton </text>
<text text-anchor="middle" x="1827.2627" y="-250.4889" font-family="Times,serif" font-size="14.00" fill="#000000">widgetID: com.droiddream.lovePositions:id/about </text>
<text text-anchor="middle" x="1827.2627" y="-236.4889" font-family="Times,serif" font-size="14.00" fill="#000000">handler: Handler (android.view.ViewRootImpl$ViewRootHandler) {2a001f2} </text>
<text text-anchor="middle" x="1827.2627" y="-222.4889" font-family="Times,serif" font-size="14.00" fill="#000000">event: CLICK </text>
<text text-anchor="middle" x="1827.2627" y="-208.4889" font-family="Times,serif" font-size="14.00" fill="#000000">hash: 235395482 </text>
</g>
<!-- n0&#45;&gt;n0 -->
<g id="edge17" class="edge">
<title>n0&#45;&gt;n0</title>
<path fill="none" stroke="#000000" d="M1809.871,-187.9151C1789.5494,-226.0023 1795.3467,-303.6889 1827.2627,-303.6889 1856.7476,-303.6889 1863.9412,-237.3866 1848.8436,-197.256"/>
<polygon fill="#000000" stroke="#000000" points="1851.9401,-195.6073 1844.6544,-187.9151 1845.553,-198.4717 1851.9401,-195.6073"/>
<text text-anchor="middle" x="1827.2627" y="-376.4889" font-family="Times,serif" font-size="14.00" fill="#000000">src: ACT[com.apk.com.lovePositions.MainActivity]</text>
<text text-anchor="middle" x="1827.2627" y="-362.4889" font-family="Times,serif" font-size="14.00" fill="#000000">tgt: ACT[com.apk.com.lovePositions.MainActivity]</text>
<text text-anchor="middle" x="1827.2627" y="-348.4889" font-family="Times,serif" font-size="14.00" fill="#000000">dialogClass: class android.app.AlertDialog </text>
<text text-anchor="middle" x="1827.2627" y="-334.4889" font-family="Times,serif" font-size="14.00" fill="#000000">dialogTitle: ABout </text>
<text text-anchor="middle" x="1827.2627" y="-320.4889" font-family="Times,serif" font-size="14.00" fill="#000000">event: CLICK </text>
<text text-anchor="middle" x="1827.2627" y="-306.4889" font-family="Times,serif" font-size="14.00" fill="#000000">hash: 110218664 </text>
</g>
<!-- n0&#45;&gt;n0 -->
<g id="edge18" class="edge">
<title>n0&#45;&gt;n0</title>
<path fill="none" stroke="#000000" d="M1806.7987,-187.7636C1769.8252,-242.4546 1776.6465,-387.6889 1827.2627,-387.6889 1875.4074,-387.6889 1883.9297,-256.2914 1852.8295,-196.3952"/>
<polygon fill="#000000" stroke="#000000" points="1855.8286,-194.5907 1847.7267,-187.7636 1849.8029,-198.1531 1855.8286,-194.5907"/>
<text text-anchor="middle" x="1827.2627" y="-432.4889" font-family="Times,serif" font-size="14.00" fill="#000000">src: ACT[com.apk.com.lovePositions.MainActivity]</text>
<text text-anchor="middle" x="1827.2627" y="-418.4889" font-family="Times,serif" font-size="14.00" fill="#000000">tgt: ACT[com.apk.com.lovePositions.MainActivity]</text>
<text text-anchor="middle" x="1827.2627" y="-404.4889" font-family="Times,serif" font-size="14.00" fill="#000000">event: BACK </text>
<text text-anchor="middle" x="1827.2627" y="-390.4889" font-family="Times,serif" font-size="14.00" fill="#000000">hash: BACK </text>
</g>
<!-- n0&#45;&gt;n0 -->
<g id="edge19" class="edge">
<title>n0&#45;&gt;n0</title>
<path fill="none" stroke="#000000" d="M1803.4051,-187.8843C1750.2985,-252.6832 1758.251,-443.6889 1827.2627,-443.6889 1893.5786,-443.6889 1903.5125,-267.3141 1857.0642,-196.0367"/>
<polygon fill="#000000" stroke="#000000" points="1859.8398,-193.9026 1851.1203,-187.8843 1854.1835,-198.0266 1859.8398,-193.9026"/>
<text text-anchor="middle" x="1827.2627" y="-530.4889" font-family="Times,serif" font-size="14.00" fill="#000000">src: ACT[com.apk.com.lovePositions.MainActivity]</text>
<text text-anchor="middle" x="1827.2627" y="-516.4889" font-family="Times,serif" font-size="14.00" fill="#000000">tgt: ACT[com.apk.com.lovePositions.MainActivity]</text>
<text text-anchor="middle" x="1827.2627" y="-502.4889" font-family="Times,serif" font-size="14.00" fill="#000000">class: class android.widget.ImageButton </text>
<text text-anchor="middle" x="1827.2627" y="-488.4889" font-family="Times,serif" font-size="14.00" fill="#000000">widgetID: com.droiddream.lovePositions:id/about </text>
<text text-anchor="middle" x="1827.2627" y="-474.4889" font-family="Times,serif" font-size="14.00" fill="#000000">handler: Handler (android.view.ViewRootImpl$ViewRootHandler) {2a001f2} </text>
<text text-anchor="middle" x="1827.2627" y="-460.4889" font-family="Times,serif" font-size="14.00" fill="#000000">event: CLICK </text>
<text text-anchor="middle" x="1827.2627" y="-446.4889" font-family="Times,serif" font-size="14.00" fill="#000000">hash: 235395482 </text>
</g>
<!-- n0&#45;&gt;n0 -->
<g id="edge20" class="edge">
<title>n0&#45;&gt;n0</title>
<path fill="none" stroke="#000000" d="M1801.9486,-187.7105C1730.6557,-266.924 1739.0938,-541.6889 1827.2627,-541.6889 1912.6764,-541.6889 1923.2644,-283.8284 1859.0269,-195.6954"/>
<polygon fill="#000000" stroke="#000000" points="1861.5834,-193.2902 1852.5768,-187.7105 1856.1381,-197.6889 1861.5834,-193.2902"/>
<text text-anchor="middle" x="1827.2627" y="-614.4889" font-family="Times,serif" font-size="14.00" fill="#000000">src: ACT[com.apk.com.lovePositions.MainActivity]</text>
<text text-anchor="middle" x="1827.2627" y="-600.4889" font-family="Times,serif" font-size="14.00" fill="#000000">tgt: ACT[com.apk.com.lovePositions.MainActivity]</text>
<text text-anchor="middle" x="1827.2627" y="-586.4889" font-family="Times,serif" font-size="14.00" fill="#000000">dialogClass: class android.app.AlertDialog </text>
<text text-anchor="middle" x="1827.2627" y="-572.4889" font-family="Times,serif" font-size="14.00" fill="#000000">dialogTitle: ABout </text>
<text text-anchor="middle" x="1827.2627" y="-558.4889" font-family="Times,serif" font-size="14.00" fill="#000000">event: CLICK </text>
<text text-anchor="middle" x="1827.2627" y="-544.4889" font-family="Times,serif" font-size="14.00" fill="#000000">hash: 63119155 </text>
</g>
<!-- n3&#45;&gt;n2 -->
<g id="edge4" class="edge">
<title>n3&#45;&gt;n2</title>
<path fill="none" stroke="#000000" d="M1769.7233,-775.6201C1736.7252,-762.1049 1697.7586,-740.1066 1676.5557,-706.6889 1650.8695,-666.2052 1693.82,-524.1719 1658.5557,-491.6889 1639.372,-474.0183 1324.109,-480.148 1128.5035,-485.7212"/>
<polygon fill="#000000" stroke="#000000" points="1128.3065,-482.2254 1118.4112,-486.0113 1128.5077,-489.2225 1128.3065,-482.2254"/>
<text text-anchor="middle" x="1436.1758" y="-578.4889" font-family="Times,serif" font-size="14.00" fill="#000000">src: ACT[com.apk.com.lovePositions.ContentActivity]</text>
<text text-anchor="middle" x="1436.1758" y="-564.4889" font-family="Times,serif" font-size="14.00" fill="#000000">tgt: ACT[com.apk.com.lovePositions.ViewActivity]</text>
<text text-anchor="middle" x="1436.1758" y="-550.4889" font-family="Times,serif" font-size="14.00" fill="#000000">class: class android.widget.ImageButton </text>
<text text-anchor="middle" x="1436.1758" y="-536.4889" font-family="Times,serif" font-size="14.00" fill="#000000">widgetID: com.droiddream.lovePositions:id/back </text>
<text text-anchor="middle" x="1436.1758" y="-522.4889" font-family="Times,serif" font-size="14.00" fill="#000000">handler: Handler (android.view.ViewRootImpl$ViewRootHandler) {b1bb55d} </text>
<text text-anchor="middle" x="1436.1758" y="-508.4889" font-family="Times,serif" font-size="14.00" fill="#000000">event: CLICK </text>
<text text-anchor="middle" x="1436.1758" y="-494.4889" font-family="Times,serif" font-size="14.00" fill="#000000">hash: 164411425 </text>
</g>
<!-- n3&#45;&gt;n2 -->
<g id="edge6" class="edge">
<title>n3&#45;&gt;n2</title>
<path fill="none" stroke="#000000" d="M1821.0765,-811.8967C1804.0019,-858.8645 1751.2397,-983.7805 1658.5557,-1031.6889 1570.756,-1077.0726 1296.601,-1085.6498 1213.7959,-1031.6889 1029.0792,-911.316 986.2127,-612.2032 977.194,-518.9288"/>
<polygon fill="#000000" stroke="#000000" points="980.6679,-518.4828 976.2752,-508.8415 973.6968,-519.1178 980.6679,-518.4828"/>
<text text-anchor="middle" x="1436.1758" y="-1113.4889" font-family="Times,serif" font-size="14.00" fill="#000000">src: ACT[com.apk.com.lovePositions.ContentActivity]</text>
<text text-anchor="middle" x="1436.1758" y="-1099.4889" font-family="Times,serif" font-size="14.00" fill="#000000">tgt: ACT[com.apk.com.lovePositions.ViewActivity]</text>
<text text-anchor="middle" x="1436.1758" y="-1085.4889" font-family="Times,serif" font-size="14.00" fill="#000000">event: BACK </text>
<text text-anchor="middle" x="1436.1758" y="-1071.4889" font-family="Times,serif" font-size="14.00" fill="#000000">hash: BACK </text>
</g>
<!-- n3&#45;&gt;n2 -->
<g id="edge23" class="edge">
<title>n3&#45;&gt;n2</title>
<path fill="none" stroke="#000000" d="M1815.3284,-811.8082C1790.8988,-847.0298 1731.3138,-923.806 1658.5557,-952.6889 1612.6246,-970.9222 1256.0069,-978.3862 1213.7959,-952.6889 1050.714,-853.4076 994.1037,-602.9274 979.3408,-518.7662"/>
<polygon fill="#000000" stroke="#000000" points="982.7915,-518.1805 977.6711,-508.9051 975.8897,-519.3491 982.7915,-518.1805"/>
<text text-anchor="middle" x="1436.1758" y="-1013.4889" font-family="Times,serif" font-size="14.00" fill="#000000">src: ACT[com.apk.com.lovePositions.ContentActivity]</text>
<text text-anchor="middle" x="1436.1758" y="-999.4889" font-family="Times,serif" font-size="14.00" fill="#000000">tgt: ACT[com.apk.com.lovePositions.ViewActivity]</text>
<text text-anchor="middle" x="1436.1758" y="-985.4889" font-family="Times,serif" font-size="14.00" fill="#000000">event: BACK </text>
<text text-anchor="middle" x="1436.1758" y="-971.4889" font-family="Times,serif" font-size="14.00" fill="#000000">hash: BACK </text>
</g>
</g>
</svg>
