<?xml version="1.0" encoding="UTF-8" standalone="no"?>
<!DOCTYPE svg PUBLIC "-//W3C//DTD SVG 1.1//EN"
 "http://www.w3.org/Graphics/SVG/1.1/DTD/svg11.dtd">
<!-- Generated by graphviz version 2.40.1 (20161225.0304)
 -->
<!-- Title: G Pages: 1 -->
<svg width="1697pt" height="788pt"
 viewBox="0.00 0.00 1696.80 787.99" xmlns="http://www.w3.org/2000/svg" xmlns:xlink="http://www.w3.org/1999/xlink">
<g id="graph0" class="graph" transform="scale(1 1) rotate(0) translate(4 783.9911)">
<title>G</title>
<polygon fill="#ffffff" stroke="transparent" points="-4,4 -4,-783.9911 1692.8047,-783.9911 1692.8047,4 -4,4"/>
<!-- n2 -->
<g id="node1" class="node">
<title>n2</title>
<polygon fill="none" stroke="#000000" points="330.3302,-111.9911 112.8573,-111.9911 112.8573,-75.9911 330.3302,-75.9911 330.3302,-111.9911"/>
<text text-anchor="middle" x="221.5938" y="-89.7911" font-family="Times,serif" font-size="14.00" fill="#000000">ACT[friend.secretary.ShareFriends]</text>
</g>
<!-- n2&#45;&gt;n2 -->
<g id="edge8" class="edge">
<title>n2&#45;&gt;n2</title>
<path fill="none" stroke="#000000" d="M211.1614,-112.1438C209.5564,-121.5301 213.0339,-129.9911 221.5938,-129.9911 226.8099,-129.9911 230.1388,-126.8492 231.5804,-122.2706"/>
<polygon fill="#000000" stroke="#000000" points="235.0829,-122.288 232.0261,-112.1438 228.0897,-121.9802 235.0829,-122.288"/>
<text text-anchor="middle" x="221.5938" y="-202.7911" font-family="Times,serif" font-size="14.00" fill="#000000">src: ACT[friend.secretary.ShareFriends]</text>
<text text-anchor="middle" x="221.5938" y="-188.7911" font-family="Times,serif" font-size="14.00" fill="#000000">tgt: ACT[friend.secretary.ShareFriends]</text>
<text text-anchor="middle" x="221.5938" y="-174.7911" font-family="Times,serif" font-size="14.00" fill="#000000">dialogClass: class android.app.ProgressDialog </text>
<text text-anchor="middle" x="221.5938" y="-160.7911" font-family="Times,serif" font-size="14.00" fill="#000000">dialogTitle: Get contact list </text>
<text text-anchor="middle" x="221.5938" y="-146.7911" font-family="Times,serif" font-size="14.00" fill="#000000">event: CLICK </text>
<text text-anchor="middle" x="221.5938" y="-132.7911" font-family="Times,serif" font-size="14.00" fill="#000000">hash: 126809001 </text>
</g>
<!-- n2&#45;&gt;n2 -->
<g id="edge9" class="edge">
<title>n2&#45;&gt;n2</title>
<path fill="none" stroke="#000000" d="M208.3108,-112.0017C193.7953,-146.9785 198.223,-213.9911 221.5938,-213.9911 242.9561,-213.9911 248.4913,-158.0014 238.1993,-121.666"/>
<polygon fill="#000000" stroke="#000000" points="241.4378,-120.3205 234.8767,-112.0017 234.8181,-122.5963 241.4378,-120.3205"/>
<text text-anchor="middle" x="221.5938" y="-300.7911" font-family="Times,serif" font-size="14.00" fill="#000000">src: ACT[friend.secretary.ShareFriends]</text>
<text text-anchor="middle" x="221.5938" y="-286.7911" font-family="Times,serif" font-size="14.00" fill="#000000">tgt: ACT[friend.secretary.ShareFriends]</text>
<text text-anchor="middle" x="221.5938" y="-272.7911" font-family="Times,serif" font-size="14.00" fill="#000000">class: class android.widget.AutoCompleteTextView </text>
<text text-anchor="middle" x="221.5938" y="-258.7911" font-family="Times,serif" font-size="14.00" fill="#000000">widgetID: friend.secretary:id/txtContactList </text>
<text text-anchor="middle" x="221.5938" y="-244.7911" font-family="Times,serif" font-size="14.00" fill="#000000">handler: Handler (android.view.ViewRootImpl$ViewRootHandler) {44c43a2} </text>
<text text-anchor="middle" x="221.5938" y="-230.7911" font-family="Times,serif" font-size="14.00" fill="#000000">event: CLICK </text>
<text text-anchor="middle" x="221.5938" y="-216.7911" font-family="Times,serif" font-size="14.00" fill="#000000">hash: 146290245 </text>
</g>
<!-- n2&#45;&gt;n2 -->
<g id="edge10" class="edge">
<title>n2&#45;&gt;n2</title>
<path fill="none" stroke="#000000" d="M206.4644,-112.0658C179.1292,-166.7567 184.1724,-311.9911 221.5938,-311.9911 257.0417,-311.9911 263.4363,-181.6705 240.7775,-121.4389"/>
<polygon fill="#000000" stroke="#000000" points="243.9056,-119.8544 236.7231,-112.0658 237.4809,-122.6335 243.9056,-119.8544"/>
<text text-anchor="middle" x="221.5938" y="-356.7911" font-family="Times,serif" font-size="14.00" fill="#000000">src: ACT[friend.secretary.ShareFriends]</text>
<text text-anchor="middle" x="221.5938" y="-342.7911" font-family="Times,serif" font-size="14.00" fill="#000000">tgt: ACT[friend.secretary.ShareFriends]</text>
<text text-anchor="middle" x="221.5938" y="-328.7911" font-family="Times,serif" font-size="14.00" fill="#000000">event: BACK </text>
<text text-anchor="middle" x="221.5938" y="-314.7911" font-family="Times,serif" font-size="14.00" fill="#000000">hash: BACK </text>
</g>
<!-- n2&#45;&gt;n2 -->
<g id="edge11" class="edge">
<title>n2&#45;&gt;n2</title>
<path fill="none" stroke="#000000" d="M203.9555,-112.1864C164.6928,-176.9854 170.5723,-367.9911 221.5938,-367.9911 270.4229,-367.9911 277.9061,-193.0473 244.0432,-121.2133"/>
<polygon fill="#000000" stroke="#000000" points="247.0242,-119.365 239.232,-112.1864 240.8469,-122.6575 247.0242,-119.365"/>
<text text-anchor="middle" x="221.5938" y="-440.7911" font-family="Times,serif" font-size="14.00" fill="#000000">src: ACT[friend.secretary.ShareFriends]</text>
<text text-anchor="middle" x="221.5938" y="-426.7911" font-family="Times,serif" font-size="14.00" fill="#000000">tgt: ACT[friend.secretary.ShareFriends]</text>
<text text-anchor="middle" x="221.5938" y="-412.7911" font-family="Times,serif" font-size="14.00" fill="#000000">class: class android.widget.ListView </text>
<text text-anchor="middle" x="221.5938" y="-398.7911" font-family="Times,serif" font-size="14.00" fill="#000000">handler: Handler (android.view.ViewRootImpl$ViewRootHandler) {44c43a2} </text>
<text text-anchor="middle" x="221.5938" y="-384.7911" font-family="Times,serif" font-size="14.00" fill="#000000">event: CLICK </text>
<text text-anchor="middle" x="221.5938" y="-370.7911" font-family="Times,serif" font-size="14.00" fill="#000000">hash: 14331584 </text>
</g>
<!-- n2&#45;&gt;n2 -->
<g id="edge12" class="edge">
<title>n2&#45;&gt;n2</title>
<path fill="none" stroke="#000000" d="M202.5379,-112.1542C150.1979,-189.8109 156.5498,-451.9911 221.5938,-451.9911 284.4145,-451.9911 292.4869,-207.427 245.8108,-120.7459"/>
<polygon fill="#000000" stroke="#000000" points="248.7994,-118.9241 240.6496,-112.1542 242.7988,-122.5288 248.7994,-118.9241"/>
<text text-anchor="middle" x="221.5938" y="-524.7911" font-family="Times,serif" font-size="14.00" fill="#000000">src: ACT[friend.secretary.ShareFriends]</text>
<text text-anchor="middle" x="221.5938" y="-510.7911" font-family="Times,serif" font-size="14.00" fill="#000000">tgt: ACT[friend.secretary.ShareFriends]</text>
<text text-anchor="middle" x="221.5938" y="-496.7911" font-family="Times,serif" font-size="14.00" fill="#000000">class: class android.widget.ListView </text>
<text text-anchor="middle" x="221.5938" y="-482.7911" font-family="Times,serif" font-size="14.00" fill="#000000">handler: Handler (android.view.ViewRootImpl$ViewRootHandler) {44c43a2} </text>
<text text-anchor="middle" x="221.5938" y="-468.7911" font-family="Times,serif" font-size="14.00" fill="#000000">event: CLICK </text>
<text text-anchor="middle" x="221.5938" y="-454.7911" font-family="Times,serif" font-size="14.00" fill="#000000">hash: 14331584 </text>
</g>
<!-- n2&#45;&gt;n2 -->
<g id="edge13" class="edge">
<title>n2&#45;&gt;n2</title>
<path fill="none" stroke="#000000" d="M201.2094,-112.2699C135.7326,-201.787 142.5273,-535.9911 221.5938,-535.9911 298.3438,-535.9911 306.9948,-221.0824 247.5468,-120.7531"/>
<polygon fill="#000000" stroke="#000000" points="250.3917,-118.7089 241.9781,-112.2699 244.5399,-122.5503 250.3917,-118.7089"/>
<text text-anchor="middle" x="221.5938" y="-594.7911" font-family="Times,serif" font-size="14.00" fill="#000000">src: ACT[friend.secretary.ShareFriends]</text>
<text text-anchor="middle" x="221.5938" y="-580.7911" font-family="Times,serif" font-size="14.00" fill="#000000">tgt: ACT[friend.secretary.ShareFriends]</text>
<text text-anchor="middle" x="221.5938" y="-566.7911" font-family="Times,serif" font-size="14.00" fill="#000000">dialogClass: class android.app.Dialog </text>
<text text-anchor="middle" x="221.5938" y="-552.7911" font-family="Times,serif" font-size="14.00" fill="#000000">event: CLICK </text>
<text text-anchor="middle" x="221.5938" y="-538.7911" font-family="Times,serif" font-size="14.00" fill="#000000">hash: 130211896 </text>
</g>
<!-- n0 -->
<g id="node3" class="node">
<title>n0</title>
<polygon fill="none" stroke="#000000" points="979.3578,-111.9911 807.65,-111.9911 807.65,-75.9911 979.3578,-75.9911 979.3578,-111.9911"/>
<text text-anchor="middle" x="893.5039" y="-89.7911" font-family="Times,serif" font-size="14.00" fill="#000000">ACT[friend.secretary.main]</text>
</g>
<!-- n2&#45;&gt;n0 -->
<g id="edge14" class="edge">
<title>n2&#45;&gt;n0</title>
<path fill="none" stroke="#000000" d="M268.3138,-112.044C291.8823,-120.2035 321.1451,-128.917 348.2119,-132.9911 542.2991,-162.2045 596.7212,-168.1101 789.8271,-132.9911 808.8245,-129.5361 828.8685,-122.792 846.2157,-115.8702"/>
<polygon fill="#000000" stroke="#000000" points="847.6375,-119.0699 855.5519,-112.0262 844.9724,-112.5971 847.6375,-119.0699"/>
<text text-anchor="middle" x="569.0195" y="-201.7911" font-family="Times,serif" font-size="14.00" fill="#000000">src: ACT[friend.secretary.ShareFriends]</text>
<text text-anchor="middle" x="569.0195" y="-187.7911" font-family="Times,serif" font-size="14.00" fill="#000000">tgt: ACT[friend.secretary.main]</text>
<text text-anchor="middle" x="569.0195" y="-173.7911" font-family="Times,serif" font-size="14.00" fill="#000000">event: BACK </text>
<text text-anchor="middle" x="569.0195" y="-159.7911" font-family="Times,serif" font-size="14.00" fill="#000000">hash: BACK </text>
</g>
<!-- n1 -->
<g id="node2" class="node">
<title>n1</title>
<polygon fill="none" stroke="#000000" points="1688.7988,-111.9911 1456.8223,-111.9911 1456.8223,-75.9911 1688.7988,-75.9911 1688.7988,-111.9911"/>
<text text-anchor="middle" x="1572.8105" y="-89.7911" font-family="Times,serif" font-size="14.00" fill="#000000">ACT[friend.secretary.ReceiveContact]</text>
</g>
<!-- n0&#45;&gt;n2 -->
<g id="edge7" class="edge">
<title>n0&#45;&gt;n2</title>
<path fill="none" stroke="#000000" d="M869.9424,-75.8227C849.8856,-61.5766 819.6582,-42.8848 789.8271,-34.9911 600.0843,15.2177 539.8388,7.4635 348.2119,-34.9911 316.9289,-41.9218 284.2104,-57.4137 259.8706,-70.7839"/>
<polygon fill="#000000" stroke="#000000" points="257.9774,-67.833 250.9729,-75.7821 261.4057,-73.936 257.9774,-67.833"/>
<text text-anchor="middle" x="569.0195" y="-121.7911" font-family="Times,serif" font-size="14.00" fill="#000000">src: ACT[friend.secretary.main]</text>
<text text-anchor="middle" x="569.0195" y="-107.7911" font-family="Times,serif" font-size="14.00" fill="#000000">tgt: ACT[friend.secretary.ShareFriends]</text>
<text text-anchor="middle" x="569.0195" y="-93.7911" font-family="Times,serif" font-size="14.00" fill="#000000">class: class android.view.MenuItem </text>
<text text-anchor="middle" x="569.0195" y="-79.7911" font-family="Times,serif" font-size="14.00" fill="#000000">widgetID: NONE </text>
<text text-anchor="middle" x="569.0195" y="-65.7911" font-family="Times,serif" font-size="14.00" fill="#000000">handler: Handler (android.view.ViewRootImpl$ViewRootHandler) {ac8e4a3} </text>
<text text-anchor="middle" x="569.0195" y="-51.7911" font-family="Times,serif" font-size="14.00" fill="#000000">event: CLICK </text>
<text text-anchor="middle" x="569.0195" y="-37.7911" font-family="Times,serif" font-size="14.00" fill="#000000">hash: 42552408 </text>
</g>
<!-- n0&#45;&gt;n1 -->
<g id="edge6" class="edge">
<title>n0&#45;&gt;n1</title>
<path fill="none" stroke="#000000" d="M979.1944,-93.9911C1097.1569,-93.9911 1310.408,-93.9911 1446.6261,-93.9911"/>
<polygon fill="#000000" stroke="#000000" points="1446.7053,-97.4912 1456.7053,-93.9911 1446.7052,-90.4912 1446.7053,-97.4912"/>
<text text-anchor="middle" x="1217.9985" y="-180.7911" font-family="Times,serif" font-size="14.00" fill="#000000">src: ACT[friend.secretary.main]</text>
<text text-anchor="middle" x="1217.9985" y="-166.7911" font-family="Times,serif" font-size="14.00" fill="#000000">tgt: ACT[friend.secretary.ReceiveContact]</text>
<text text-anchor="middle" x="1217.9985" y="-152.7911" font-family="Times,serif" font-size="14.00" fill="#000000">class: class android.view.MenuItem </text>
<text text-anchor="middle" x="1217.9985" y="-138.7911" font-family="Times,serif" font-size="14.00" fill="#000000">widgetID: NONE </text>
<text text-anchor="middle" x="1217.9985" y="-124.7911" font-family="Times,serif" font-size="14.00" fill="#000000">handler: Handler (android.view.ViewRootImpl$ViewRootHandler) {d1fc217} </text>
<text text-anchor="middle" x="1217.9985" y="-110.7911" font-family="Times,serif" font-size="14.00" fill="#000000">event: CLICK </text>
<text text-anchor="middle" x="1217.9985" y="-96.7911" font-family="Times,serif" font-size="14.00" fill="#000000">hash: 231244209 </text>
</g>
<!-- n0&#45;&gt;n0 -->
<g id="edge1" class="edge">
<title>n0&#45;&gt;n0</title>
<path fill="none" stroke="#000000" d="M883.7349,-112.1438C882.2319,-121.5301 885.4883,-129.9911 893.5039,-129.9911 898.3884,-129.9911 901.5056,-126.8492 902.8556,-122.2706"/>
<polygon fill="#000000" stroke="#000000" points="906.3581,-122.2795 903.2729,-112.1438 899.364,-121.9911 906.3581,-122.2795"/>
<text text-anchor="middle" x="893.5039" y="-216.7911" font-family="Times,serif" font-size="14.00" fill="#000000">src: ACT[friend.secretary.main]</text>
<text text-anchor="middle" x="893.5039" y="-202.7911" font-family="Times,serif" font-size="14.00" fill="#000000">tgt: ACT[friend.secretary.main]</text>
<text text-anchor="middle" x="893.5039" y="-188.7911" font-family="Times,serif" font-size="14.00" fill="#000000">class: class android.widget.Spinner </text>
<text text-anchor="middle" x="893.5039" y="-174.7911" font-family="Times,serif" font-size="14.00" fill="#000000">widgetID: friend.secretary:id/ddlConfig </text>
<text text-anchor="middle" x="893.5039" y="-160.7911" font-family="Times,serif" font-size="14.00" fill="#000000">handler: Handler (android.view.ViewRootImpl$ViewRootHandler) {bd53b4b} </text>
<text text-anchor="middle" x="893.5039" y="-146.7911" font-family="Times,serif" font-size="14.00" fill="#000000">event: CLICK </text>
<text text-anchor="middle" x="893.5039" y="-132.7911" font-family="Times,serif" font-size="14.00" fill="#000000">hash: 96452874 </text>
</g>
<!-- n0&#45;&gt;n0 -->
<g id="edge2" class="edge">
<title>n0&#45;&gt;n0</title>
<path fill="none" stroke="#000000" d="M881.4635,-112.2172C867.3947,-150.3045 871.4082,-227.9911 893.5039,-227.9911 913.8734,-227.9911 918.8756,-161.9688 908.5106,-121.8131"/>
<polygon fill="#000000" stroke="#000000" points="911.8416,-120.7375 905.5443,-112.2172 905.1538,-122.8048 911.8416,-120.7375"/>
<text text-anchor="middle" x="893.5039" y="-300.7911" font-family="Times,serif" font-size="14.00" fill="#000000">src: ACT[friend.secretary.main]</text>
<text text-anchor="middle" x="893.5039" y="-286.7911" font-family="Times,serif" font-size="14.00" fill="#000000">tgt: ACT[friend.secretary.main]</text>
<text text-anchor="middle" x="893.5039" y="-272.7911" font-family="Times,serif" font-size="14.00" fill="#000000">dialogClass: class android.app.AlertDialog </text>
<text text-anchor="middle" x="893.5039" y="-258.7911" font-family="Times,serif" font-size="14.00" fill="#000000">dialogTitle: Choose a config </text>
<text text-anchor="middle" x="893.5039" y="-244.7911" font-family="Times,serif" font-size="14.00" fill="#000000">event: CLICK </text>
<text text-anchor="middle" x="893.5039" y="-230.7911" font-family="Times,serif" font-size="14.00" fill="#000000">hash: 60934053 </text>
</g>
<!-- n0&#45;&gt;n0 -->
<g id="edge3" class="edge">
<title>n0&#45;&gt;n0</title>
<path fill="none" stroke="#000000" d="M879.3365,-112.0658C853.7395,-166.7567 858.4619,-311.9911 893.5039,-311.9911 926.698,-311.9911 932.686,-181.6705 911.4679,-121.4389"/>
<polygon fill="#000000" stroke="#000000" points="914.6696,-120.0203 907.6713,-112.0658 908.1816,-122.6483 914.6696,-120.0203"/>
<text text-anchor="middle" x="893.5039" y="-398.7911" font-family="Times,serif" font-size="14.00" fill="#000000">src: ACT[friend.secretary.main]</text>
<text text-anchor="middle" x="893.5039" y="-384.7911" font-family="Times,serif" font-size="14.00" fill="#000000">tgt: ACT[friend.secretary.main]</text>
<text text-anchor="middle" x="893.5039" y="-370.7911" font-family="Times,serif" font-size="14.00" fill="#000000">class: class com.android.internal.app.AlertController$RecycleListView </text>
<text text-anchor="middle" x="893.5039" y="-356.7911" font-family="Times,serif" font-size="14.00" fill="#000000">widgetID: android:id/select_dialog_listview </text>
<text text-anchor="middle" x="893.5039" y="-342.7911" font-family="Times,serif" font-size="14.00" fill="#000000">handler: Handler (android.view.ViewRootImpl$ViewRootHandler) {97817f7} </text>
<text text-anchor="middle" x="893.5039" y="-328.7911" font-family="Times,serif" font-size="14.00" fill="#000000">event: CLICK </text>
<text text-anchor="middle" x="893.5039" y="-314.7911" font-family="Times,serif" font-size="14.00" fill="#000000">hash: 86103736 </text>
</g>
<!-- n0&#45;&gt;n0 -->
<g id="edge4" class="edge">
<title>n0&#45;&gt;n0</title>
<path fill="none" stroke="#000000" d="M877.7231,-112.3131C840.1499,-183.1322 845.4102,-409.9911 893.5039,-409.9911 939.6251,-409.9911 946.3543,-201.3601 913.6918,-121.7883"/>
<polygon fill="#000000" stroke="#000000" points="916.6756,-119.9043 909.2847,-112.3131 910.3285,-122.8564 916.6756,-119.9043"/>
<text text-anchor="middle" x="893.5039" y="-496.7911" font-family="Times,serif" font-size="14.00" fill="#000000">src: ACT[friend.secretary.main]</text>
<text text-anchor="middle" x="893.5039" y="-482.7911" font-family="Times,serif" font-size="14.00" fill="#000000">tgt: ACT[friend.secretary.main]</text>
<text text-anchor="middle" x="893.5039" y="-468.7911" font-family="Times,serif" font-size="14.00" fill="#000000">class: class android.widget.Spinner </text>
<text text-anchor="middle" x="893.5039" y="-454.7911" font-family="Times,serif" font-size="14.00" fill="#000000">widgetID: friend.secretary:id/ddlConfig </text>
<text text-anchor="middle" x="893.5039" y="-440.7911" font-family="Times,serif" font-size="14.00" fill="#000000">handler: Handler (android.view.ViewRootImpl$ViewRootHandler) {bd53b4b} </text>
<text text-anchor="middle" x="893.5039" y="-426.7911" font-family="Times,serif" font-size="14.00" fill="#000000">event: CLICK </text>
<text text-anchor="middle" x="893.5039" y="-412.7911" font-family="Times,serif" font-size="14.00" fill="#000000">hash: 96452874 </text>
</g>
<!-- n0&#45;&gt;n0 -->
<g id="edge5" class="edge">
<title>n0&#45;&gt;n0</title>
<path fill="none" stroke="#000000" d="M876.6214,-111.9939C826.5727,-196.2042 832.2002,-507.9911 893.5039,-507.9911 952.7721,-507.9911 960,-216.5651 915.1876,-121.115"/>
<polygon fill="#000000" stroke="#000000" points="918.1415,-119.2126 910.3864,-111.9939 911.9472,-122.4732 918.1415,-119.2126"/>
<text text-anchor="middle" x="893.5039" y="-580.7911" font-family="Times,serif" font-size="14.00" fill="#000000">src: ACT[friend.secretary.main]</text>
<text text-anchor="middle" x="893.5039" y="-566.7911" font-family="Times,serif" font-size="14.00" fill="#000000">tgt: ACT[friend.secretary.main]</text>
<text text-anchor="middle" x="893.5039" y="-552.7911" font-family="Times,serif" font-size="14.00" fill="#000000">dialogClass: class android.app.AlertDialog </text>
<text text-anchor="middle" x="893.5039" y="-538.7911" font-family="Times,serif" font-size="14.00" fill="#000000">dialogTitle: Choose a config </text>
<text text-anchor="middle" x="893.5039" y="-524.7911" font-family="Times,serif" font-size="14.00" fill="#000000">event: CLICK </text>
<text text-anchor="middle" x="893.5039" y="-510.7911" font-family="Times,serif" font-size="14.00" fill="#000000">hash: 207399691 </text>
</g>
<!-- n0&#45;&gt;n0 -->
<g id="edge15" class="edge">
<title>n0&#45;&gt;n0</title>
<path fill="none" stroke="#000000" d="M875.2055,-112.2043C813.049,-207.7351 819.1484,-591.9911 893.5039,-591.9911 965.7536,-591.9911 973.5586,-229.1914 916.919,-121.0001"/>
<polygon fill="#000000" stroke="#000000" points="919.856,-119.0883 911.8023,-112.2043 913.8053,-122.6081 919.856,-119.0883"/>
<text text-anchor="middle" x="893.5039" y="-678.7911" font-family="Times,serif" font-size="14.00" fill="#000000">src: ACT[friend.secretary.main]</text>
<text text-anchor="middle" x="893.5039" y="-664.7911" font-family="Times,serif" font-size="14.00" fill="#000000">tgt: ACT[friend.secretary.main]</text>
<text text-anchor="middle" x="893.5039" y="-650.7911" font-family="Times,serif" font-size="14.00" fill="#000000">class: class android.widget.Spinner </text>
<text text-anchor="middle" x="893.5039" y="-636.7911" font-family="Times,serif" font-size="14.00" fill="#000000">widgetID: friend.secretary:id/ddlConfig </text>
<text text-anchor="middle" x="893.5039" y="-622.7911" font-family="Times,serif" font-size="14.00" fill="#000000">handler: Handler (android.view.ViewRootImpl$ViewRootHandler) {838e41a} </text>
<text text-anchor="middle" x="893.5039" y="-608.7911" font-family="Times,serif" font-size="14.00" fill="#000000">event: CLICK </text>
<text text-anchor="middle" x="893.5039" y="-594.7911" font-family="Times,serif" font-size="14.00" fill="#000000">hash: 96452874 </text>
</g>
</g>
</svg>
