<?xml version="1.0" encoding="UTF-8" standalone="no"?>
<!DOCTYPE svg PUBLIC "-//W3C//DTD SVG 1.1//EN"
 "http://www.w3.org/Graphics/SVG/1.1/DTD/svg11.dtd">
<!-- Generated by graphviz version 2.40.1 (20161225.0304)
 -->
<!-- Title: G Pages: 1 -->
<svg width="3060pt" height="1268pt"
 viewBox="0.00 0.00 3060.43 1267.58" xmlns="http://www.w3.org/2000/svg" xmlns:xlink="http://www.w3.org/1999/xlink">
<g id="graph0" class="graph" transform="scale(1 1) rotate(0) translate(4 1263.5843)">
<title>G</title>
<polygon fill="#ffffff" stroke="transparent" points="-4,4 -4,-1263.5843 3056.4307,-1263.5843 3056.4307,4 -4,4"/>
<!-- n2 -->
<g id="node1" class="node">
<title>n2</title>
<polygon fill="none" stroke="#000000" points="214.4045,-652.5843 -.1349,-652.5843 -.1349,-616.5843 214.4045,-616.5843 214.4045,-652.5843"/>
<text text-anchor="middle" x="107.1348" y="-630.3843" font-family="Times,serif" font-size="14.00" fill="#000000">ACT[net.manslateresad.listaMujer]</text>
</g>
<!-- n1 -->
<g id="node2" class="node">
<title>n1</title>
<polygon fill="none" stroke="#000000" points="940.4993,-652.5843 695.2058,-652.5843 695.2058,-616.5843 940.4993,-616.5843 940.4993,-652.5843"/>
<text text-anchor="middle" x="817.8525" y="-630.3843" font-family="Times,serif" font-size="14.00" fill="#000000">ACT[net.manslateresad.TraductorMujer]</text>
</g>
<!-- n2&#45;&gt;n1 -->
<g id="edge3" class="edge">
<title>n2&#45;&gt;n1</title>
<path fill="none" stroke="#000000" d="M109.4209,-652.6964C119.4202,-728.7168 161.9772,-1020.5285 232.2695,-1073.5843 390.0431,-1192.6697 517.3281,-1190.0718 677.0293,-1073.5843 746.0823,-1023.2164 797.9297,-751.3543 813.2199,-662.6165"/>
<polygon fill="#000000" stroke="#000000" points="816.675,-663.1752 814.902,-652.7298 809.7742,-662.0011 816.675,-663.1752"/>
<text text-anchor="middle" x="454.6494" y="-1248.3843" font-family="Times,serif" font-size="14.00" fill="#000000">src: ACT[net.manslateresad.listaMujer]</text>
<text text-anchor="middle" x="454.6494" y="-1234.3843" font-family="Times,serif" font-size="14.00" fill="#000000">tgt: ACT[net.manslateresad.TraductorMujer]</text>
<text text-anchor="middle" x="454.6494" y="-1220.3843" font-family="Times,serif" font-size="14.00" fill="#000000">class: class android.widget.ListView </text>
<text text-anchor="middle" x="454.6494" y="-1206.3843" font-family="Times,serif" font-size="14.00" fill="#000000">widgetID: net.manslateresad:id/ListView01 </text>
<text text-anchor="middle" x="454.6494" y="-1192.3843" font-family="Times,serif" font-size="14.00" fill="#000000">handler: Handler (android.view.ViewRootImpl$ViewRootHandler) {a333930} </text>
<text text-anchor="middle" x="454.6494" y="-1178.3843" font-family="Times,serif" font-size="14.00" fill="#000000">event: CLICK </text>
<text text-anchor="middle" x="454.6494" y="-1164.3843" font-family="Times,serif" font-size="14.00" fill="#000000">hash: 93369987 </text>
</g>
<!-- n2&#45;&gt;n1 -->
<g id="edge5" class="edge">
<title>n2&#45;&gt;n1</title>
<path fill="none" stroke="#000000" d="M111.4665,-652.8072C126.6351,-714.9234 179.3119,-916.5131 232.2695,-952.5843 252.6912,-966.4942 656.3201,-966.0624 677.0293,-952.5843 778.6855,-886.4237 807.5146,-728.2919 815.2165,-663.2623"/>
<polygon fill="#000000" stroke="#000000" points="818.7368,-663.2696 816.3511,-652.9468 811.7787,-662.5042 818.7368,-663.2696"/>
<text text-anchor="middle" x="454.6494" y="-1049.3843" font-family="Times,serif" font-size="14.00" fill="#000000">src: ACT[net.manslateresad.listaMujer]</text>
<text text-anchor="middle" x="454.6494" y="-1035.3843" font-family="Times,serif" font-size="14.00" fill="#000000">tgt: ACT[net.manslateresad.TraductorMujer]</text>
<text text-anchor="middle" x="454.6494" y="-1021.3843" font-family="Times,serif" font-size="14.00" fill="#000000">class: class android.widget.ListView </text>
<text text-anchor="middle" x="454.6494" y="-1007.3843" font-family="Times,serif" font-size="14.00" fill="#000000">widgetID: net.manslateresad:id/ListView01 </text>
<text text-anchor="middle" x="454.6494" y="-993.3843" font-family="Times,serif" font-size="14.00" fill="#000000">handler: Handler (android.view.ViewRootImpl$ViewRootHandler) {33bb089} </text>
<text text-anchor="middle" x="454.6494" y="-979.3843" font-family="Times,serif" font-size="14.00" fill="#000000">event: CLICK </text>
<text text-anchor="middle" x="454.6494" y="-965.3843" font-family="Times,serif" font-size="14.00" fill="#000000">hash: 148852320 </text>
</g>
<!-- n2&#45;&gt;n1 -->
<g id="edge9" class="edge">
<title>n2&#45;&gt;n1</title>
<path fill="none" stroke="#000000" d="M112.1899,-652.8308C124.64,-693.78 161.0716,-792.4622 232.2695,-831.5843 275.5796,-855.3825 633.0845,-854.1889 677.0293,-831.5843 746.89,-795.6489 789.7955,-707.2087 807.874,-662.0628"/>
<polygon fill="#000000" stroke="#000000" points="811.1899,-663.1927 811.5507,-652.604 804.6655,-660.6565 811.1899,-663.1927"/>
<text text-anchor="middle" x="454.6494" y="-935.3843" font-family="Times,serif" font-size="14.00" fill="#000000">src: ACT[net.manslateresad.listaMujer]</text>
<text text-anchor="middle" x="454.6494" y="-921.3843" font-family="Times,serif" font-size="14.00" fill="#000000">tgt: ACT[net.manslateresad.TraductorMujer]</text>
<text text-anchor="middle" x="454.6494" y="-907.3843" font-family="Times,serif" font-size="14.00" fill="#000000">class: class android.widget.ListView </text>
<text text-anchor="middle" x="454.6494" y="-893.3843" font-family="Times,serif" font-size="14.00" fill="#000000">widgetID: net.manslateresad:id/ListView01 </text>
<text text-anchor="middle" x="454.6494" y="-879.3843" font-family="Times,serif" font-size="14.00" fill="#000000">handler: Handler (android.view.ViewRootImpl$ViewRootHandler) {9d0f5ee} </text>
<text text-anchor="middle" x="454.6494" y="-865.3843" font-family="Times,serif" font-size="14.00" fill="#000000">event: CLICK </text>
<text text-anchor="middle" x="454.6494" y="-851.3843" font-family="Times,serif" font-size="14.00" fill="#000000">hash: 200592889 </text>
</g>
<!-- n2&#45;&gt;n1 -->
<g id="edge11" class="edge">
<title>n2&#45;&gt;n1</title>
<path fill="none" stroke="#000000" d="M119.4684,-652.9773C139.3614,-680.7836 181.4832,-732.4155 232.2695,-752.5843 278.1981,-770.824 630.586,-769.4702 677.0293,-752.5843 727.1728,-734.3531 771.9117,-689.5671 796.9002,-660.7125"/>
<polygon fill="#000000" stroke="#000000" points="799.615,-662.9227 803.4126,-653.0318 794.2758,-658.3957 799.615,-662.9227"/>
<text text-anchor="middle" x="454.6494" y="-810.3843" font-family="Times,serif" font-size="14.00" fill="#000000">src: ACT[net.manslateresad.listaMujer]</text>
<text text-anchor="middle" x="454.6494" y="-796.3843" font-family="Times,serif" font-size="14.00" fill="#000000">tgt: ACT[net.manslateresad.TraductorMujer]</text>
<text text-anchor="middle" x="454.6494" y="-782.3843" font-family="Times,serif" font-size="14.00" fill="#000000">event: BACK </text>
<text text-anchor="middle" x="454.6494" y="-768.3843" font-family="Times,serif" font-size="14.00" fill="#000000">hash: BACK </text>
</g>
<!-- n2&#45;&gt;n1 -->
<g id="edge15" class="edge">
<title>n2&#45;&gt;n1</title>
<path fill="none" stroke="#000000" d="M153.2895,-652.6364C176.5775,-660.7956 205.4989,-669.5093 232.2695,-673.5843 329.9795,-688.4578 579.0942,-686.895 677.0293,-673.5843 703.3207,-670.011 731.6349,-662.8477 755.9306,-655.6243"/>
<polygon fill="#000000" stroke="#000000" points="757.1793,-658.9029 765.7281,-652.6444 755.1424,-652.2058 757.1793,-658.9029"/>
<text text-anchor="middle" x="454.6494" y="-728.3843" font-family="Times,serif" font-size="14.00" fill="#000000">src: ACT[net.manslateresad.listaMujer]</text>
<text text-anchor="middle" x="454.6494" y="-714.3843" font-family="Times,serif" font-size="14.00" fill="#000000">tgt: ACT[net.manslateresad.TraductorMujer]</text>
<text text-anchor="middle" x="454.6494" y="-700.3843" font-family="Times,serif" font-size="14.00" fill="#000000">event: BACK </text>
<text text-anchor="middle" x="454.6494" y="-686.3843" font-family="Times,serif" font-size="14.00" fill="#000000">hash: BACK </text>
</g>
<!-- n1&#45;&gt;n2 -->
<g id="edge2" class="edge">
<title>n1&#45;&gt;n2</title>
<path fill="none" stroke="#000000" d="M785.1865,-616.502C757.381,-602.2036 715.8808,-583.3942 677.0293,-575.5843 580.1321,-556.1063 328.7166,-553.9874 232.2695,-575.5843 201.303,-582.5185 168.9694,-598.0103 144.9281,-611.3796"/>
<polygon fill="#000000" stroke="#000000" points="143.1025,-608.3914 136.1401,-616.3774 146.563,-614.4762 143.1025,-608.3914"/>
<text text-anchor="middle" x="454.6494" y="-662.3843" font-family="Times,serif" font-size="14.00" fill="#000000">src: ACT[net.manslateresad.TraductorMujer]</text>
<text text-anchor="middle" x="454.6494" y="-648.3843" font-family="Times,serif" font-size="14.00" fill="#000000">tgt: ACT[net.manslateresad.listaMujer]</text>
<text text-anchor="middle" x="454.6494" y="-634.3843" font-family="Times,serif" font-size="14.00" fill="#000000">class: class android.widget.ImageButton </text>
<text text-anchor="middle" x="454.6494" y="-620.3843" font-family="Times,serif" font-size="14.00" fill="#000000">widgetID: net.manslateresad:id/frases </text>
<text text-anchor="middle" x="454.6494" y="-606.3843" font-family="Times,serif" font-size="14.00" fill="#000000">handler: Handler (android.view.ViewRootImpl$ViewRootHandler) {ed192c9} </text>
<text text-anchor="middle" x="454.6494" y="-592.3843" font-family="Times,serif" font-size="14.00" fill="#000000">event: CLICK </text>
<text text-anchor="middle" x="454.6494" y="-578.3843" font-family="Times,serif" font-size="14.00" fill="#000000">hash: 243754168 </text>
</g>
<!-- n1&#45;&gt;n2 -->
<g id="edge4" class="edge">
<title>n1&#45;&gt;n2</title>
<path fill="none" stroke="#000000" d="M810.0958,-616.3578C792.7718,-578.3299 746.8849,-491.274 677.0293,-457.5843 632.5177,-436.1174 276.1552,-434.865 232.2695,-457.5843 171.2924,-489.1518 133.6699,-565.6322 117.0859,-606.9696"/>
<polygon fill="#000000" stroke="#000000" points="113.7683,-605.8443 113.4115,-616.4331 120.2937,-608.378 113.7683,-605.8443"/>
<text text-anchor="middle" x="454.6494" y="-544.3843" font-family="Times,serif" font-size="14.00" fill="#000000">src: ACT[net.manslateresad.TraductorMujer]</text>
<text text-anchor="middle" x="454.6494" y="-530.3843" font-family="Times,serif" font-size="14.00" fill="#000000">tgt: ACT[net.manslateresad.listaMujer]</text>
<text text-anchor="middle" x="454.6494" y="-516.3843" font-family="Times,serif" font-size="14.00" fill="#000000">class: class android.widget.ImageButton </text>
<text text-anchor="middle" x="454.6494" y="-502.3843" font-family="Times,serif" font-size="14.00" fill="#000000">widgetID: net.manslateresad:id/frases </text>
<text text-anchor="middle" x="454.6494" y="-488.3843" font-family="Times,serif" font-size="14.00" fill="#000000">handler: Handler (android.view.ViewRootImpl$ViewRootHandler) {ed192c9} </text>
<text text-anchor="middle" x="454.6494" y="-474.3843" font-family="Times,serif" font-size="14.00" fill="#000000">event: CLICK </text>
<text text-anchor="middle" x="454.6494" y="-460.3843" font-family="Times,serif" font-size="14.00" fill="#000000">hash: 243754168 </text>
</g>
<!-- n1&#45;&gt;n2 -->
<g id="edge8" class="edge">
<title>n1&#45;&gt;n2</title>
<path fill="none" stroke="#000000" d="M815.739,-616.3056C808.3863,-562.2119 778.5493,-402.7093 677.0293,-338.5843 635.2485,-312.1935 273.4584,-311.2787 232.2695,-338.5843 139.708,-399.9467 115.4346,-544.8361 109.2155,-606.265"/>
<polygon fill="#000000" stroke="#000000" points="105.7149,-606.1113 108.2797,-616.391 112.6852,-606.7556 105.7149,-606.1113"/>
<text text-anchor="middle" x="454.6494" y="-425.3843" font-family="Times,serif" font-size="14.00" fill="#000000">src: ACT[net.manslateresad.TraductorMujer]</text>
<text text-anchor="middle" x="454.6494" y="-411.3843" font-family="Times,serif" font-size="14.00" fill="#000000">tgt: ACT[net.manslateresad.listaMujer]</text>
<text text-anchor="middle" x="454.6494" y="-397.3843" font-family="Times,serif" font-size="14.00" fill="#000000">class: class android.widget.ImageButton </text>
<text text-anchor="middle" x="454.6494" y="-383.3843" font-family="Times,serif" font-size="14.00" fill="#000000">widgetID: net.manslateresad:id/frases </text>
<text text-anchor="middle" x="454.6494" y="-369.3843" font-family="Times,serif" font-size="14.00" fill="#000000">handler: Handler (android.view.ViewRootImpl$ViewRootHandler) {ed192c9} </text>
<text text-anchor="middle" x="454.6494" y="-355.3843" font-family="Times,serif" font-size="14.00" fill="#000000">event: CLICK </text>
<text text-anchor="middle" x="454.6494" y="-341.3843" font-family="Times,serif" font-size="14.00" fill="#000000">hash: 243754168 </text>
</g>
<!-- n1&#45;&gt;n2 -->
<g id="edge10" class="edge">
<title>n1&#45;&gt;n2</title>
<path fill="none" stroke="#000000" d="M814.6291,-616.509C801.0543,-542.6319 746.0395,-265.194 677.0293,-215.5843 636.9037,-186.739 271.8988,-186.0608 232.2695,-215.5843 167.6101,-263.7551 124.0999,-520.4595 111.1586,-606.4729"/>
<polygon fill="#000000" stroke="#000000" points="107.6701,-606.1379 109.6666,-616.5429 114.5945,-607.1639 107.6701,-606.1379"/>
<text text-anchor="middle" x="454.6494" y="-302.3843" font-family="Times,serif" font-size="14.00" fill="#000000">src: ACT[net.manslateresad.TraductorMujer]</text>
<text text-anchor="middle" x="454.6494" y="-288.3843" font-family="Times,serif" font-size="14.00" fill="#000000">tgt: ACT[net.manslateresad.listaMujer]</text>
<text text-anchor="middle" x="454.6494" y="-274.3843" font-family="Times,serif" font-size="14.00" fill="#000000">class: class android.widget.ImageButton </text>
<text text-anchor="middle" x="454.6494" y="-260.3843" font-family="Times,serif" font-size="14.00" fill="#000000">widgetID: net.manslateresad:id/frases </text>
<text text-anchor="middle" x="454.6494" y="-246.3843" font-family="Times,serif" font-size="14.00" fill="#000000">handler: Handler (android.view.ViewRootImpl$ViewRootHandler) {ed192c9} </text>
<text text-anchor="middle" x="454.6494" y="-232.3843" font-family="Times,serif" font-size="14.00" fill="#000000">event: CLICK </text>
<text text-anchor="middle" x="454.6494" y="-218.3843" font-family="Times,serif" font-size="14.00" fill="#000000">hash: 243754168 </text>
</g>
<!-- n1&#45;&gt;n2 -->
<g id="edge14" class="edge">
<title>n1&#45;&gt;n2</title>
<path fill="none" stroke="#000000" d="M816.0602,-616.4486C807.0852,-529.7378 763.9714,-158.8548 677.0293,-91.5843 520.6918,29.3802 386.9441,31.4994 232.2695,-91.5843 149.8283,-157.1877 117.0873,-504.2436 109.154,-606.3218"/>
<polygon fill="#000000" stroke="#000000" points="105.65,-606.243 108.3844,-616.4789 112.63,-606.772 105.65,-606.243"/>
<text text-anchor="middle" x="454.6494" y="-178.3843" font-family="Times,serif" font-size="14.00" fill="#000000">src: ACT[net.manslateresad.TraductorMujer]</text>
<text text-anchor="middle" x="454.6494" y="-164.3843" font-family="Times,serif" font-size="14.00" fill="#000000">tgt: ACT[net.manslateresad.listaMujer]</text>
<text text-anchor="middle" x="454.6494" y="-150.3843" font-family="Times,serif" font-size="14.00" fill="#000000">class: class android.widget.ImageButton </text>
<text text-anchor="middle" x="454.6494" y="-136.3843" font-family="Times,serif" font-size="14.00" fill="#000000">widgetID: net.manslateresad:id/frases </text>
<text text-anchor="middle" x="454.6494" y="-122.3843" font-family="Times,serif" font-size="14.00" fill="#000000">handler: Handler (android.view.ViewRootImpl$ViewRootHandler) {207e529} </text>
<text text-anchor="middle" x="454.6494" y="-108.3843" font-family="Times,serif" font-size="14.00" fill="#000000">event: CLICK </text>
<text text-anchor="middle" x="454.6494" y="-94.3843" font-family="Times,serif" font-size="14.00" fill="#000000">hash: 48544599 </text>
</g>
<!-- n1&#45;&gt;n1 -->
<g id="edge6" class="edge">
<title>n1&#45;&gt;n1</title>
<path fill="none" stroke="#000000" d="M785.1082,-652.737C780.0706,-662.1234 790.9854,-670.5843 817.8525,-670.5843 834.2247,-670.5843 844.6732,-667.4424 849.1979,-662.8639"/>
<polygon fill="#000000" stroke="#000000" points="852.6954,-663.1219 850.5969,-652.737 845.7613,-662.1639 852.6954,-663.1219"/>
<text text-anchor="middle" x="817.8525" y="-757.3843" font-family="Times,serif" font-size="14.00" fill="#000000">src: ACT[net.manslateresad.TraductorMujer]</text>
<text text-anchor="middle" x="817.8525" y="-743.3843" font-family="Times,serif" font-size="14.00" fill="#000000">tgt: ACT[net.manslateresad.TraductorMujer]</text>
<text text-anchor="middle" x="817.8525" y="-729.3843" font-family="Times,serif" font-size="14.00" fill="#000000">class: class android.widget.ImageButton </text>
<text text-anchor="middle" x="817.8525" y="-715.3843" font-family="Times,serif" font-size="14.00" fill="#000000">widgetID: net.manslateresad:id/micro </text>
<text text-anchor="middle" x="817.8525" y="-701.3843" font-family="Times,serif" font-size="14.00" fill="#000000">handler: Handler (android.view.ViewRootImpl$ViewRootHandler) {ed192c9} </text>
<text text-anchor="middle" x="817.8525" y="-687.3843" font-family="Times,serif" font-size="14.00" fill="#000000">event: CLICK </text>
<text text-anchor="middle" x="817.8525" y="-673.3843" font-family="Times,serif" font-size="14.00" fill="#000000">hash: 172968731 </text>
</g>
<!-- n1&#45;&gt;n1 -->
<g id="edge7" class="edge">
<title>n1&#45;&gt;n1</title>
<path fill="none" stroke="#000000" d="M777.4948,-652.8105C730.3384,-690.8977 743.791,-768.5843 817.8525,-768.5843 887.5745,-768.5843 903.5821,-699.7349 865.8752,-659.8897"/>
<polygon fill="#000000" stroke="#000000" points="867.9312,-657.0242 858.2103,-652.8105 863.1817,-662.1665 867.9312,-657.0242"/>
<text text-anchor="middle" x="817.8525" y="-855.3843" font-family="Times,serif" font-size="14.00" fill="#000000">src: ACT[net.manslateresad.TraductorMujer]</text>
<text text-anchor="middle" x="817.8525" y="-841.3843" font-family="Times,serif" font-size="14.00" fill="#000000">tgt: ACT[net.manslateresad.TraductorMujer]</text>
<text text-anchor="middle" x="817.8525" y="-827.3843" font-family="Times,serif" font-size="14.00" fill="#000000">class: class android.widget.ImageButton </text>
<text text-anchor="middle" x="817.8525" y="-813.3843" font-family="Times,serif" font-size="14.00" fill="#000000">widgetID: net.manslateresad:id/micro </text>
<text text-anchor="middle" x="817.8525" y="-799.3843" font-family="Times,serif" font-size="14.00" fill="#000000">handler: Handler (android.view.ViewRootImpl$ViewRootHandler) {ed192c9} </text>
<text text-anchor="middle" x="817.8525" y="-785.3843" font-family="Times,serif" font-size="14.00" fill="#000000">event: CLICK </text>
<text text-anchor="middle" x="817.8525" y="-771.3843" font-family="Times,serif" font-size="14.00" fill="#000000">hash: 172968731 </text>
</g>
<!-- n0 -->
<g id="node3" class="node">
<title>n0</title>
<polygon fill="none" stroke="#000000" points="1609.4335,-652.5843 1419.673,-652.5843 1419.673,-616.5843 1609.4335,-616.5843 1609.4335,-652.5843"/>
<text text-anchor="middle" x="1514.5532" y="-630.3843" font-family="Times,serif" font-size="14.00" fill="#000000">ACT[net.manslateresad.Inicio]</text>
</g>
<!-- n1&#45;&gt;n0 -->
<g id="edge12" class="edge">
<title>n1&#45;&gt;n0</title>
<path fill="none" stroke="#000000" d="M832.2925,-653.0318C855.4288,-680.9111 903.8179,-732.639 958.6758,-752.5843 1143.7922,-819.8892 1220.7641,-830.0513 1401.8633,-752.5843 1444.8704,-734.1876 1479.2823,-690.4277 1498.2933,-661.6792"/>
<polygon fill="#000000" stroke="#000000" points="1501.4573,-663.2295 1503.916,-652.9239 1495.5673,-659.4469 1501.4573,-663.2295"/>
<text text-anchor="middle" x="1180.2695" y="-851.3843" font-family="Times,serif" font-size="14.00" fill="#000000">src: ACT[net.manslateresad.TraductorMujer]</text>
<text text-anchor="middle" x="1180.2695" y="-837.3843" font-family="Times,serif" font-size="14.00" fill="#000000">tgt: ACT[net.manslateresad.Inicio]</text>
<text text-anchor="middle" x="1180.2695" y="-823.3843" font-family="Times,serif" font-size="14.00" fill="#000000">event: BACK </text>
<text text-anchor="middle" x="1180.2695" y="-809.3843" font-family="Times,serif" font-size="14.00" fill="#000000">hash: BACK </text>
</g>
<!-- n1&#45;&gt;n0 -->
<g id="edge16" class="edge">
<title>n1&#45;&gt;n0</title>
<path fill="none" stroke="#000000" d="M869.9769,-652.6444C896.2297,-660.8056 928.762,-669.5186 958.6758,-673.5843 1056.2647,-686.848 1304.7406,-689.9154 1401.8633,-673.5843 1422.6471,-670.0895 1444.7211,-663.2071 1463.7726,-656.1838"/>
<polygon fill="#000000" stroke="#000000" points="1465.0403,-659.4464 1473.1493,-652.6277 1462.558,-652.9013 1465.0403,-659.4464"/>
<text text-anchor="middle" x="1180.2695" y="-729.3843" font-family="Times,serif" font-size="14.00" fill="#000000">src: ACT[net.manslateresad.TraductorMujer]</text>
<text text-anchor="middle" x="1180.2695" y="-715.3843" font-family="Times,serif" font-size="14.00" fill="#000000">tgt: ACT[net.manslateresad.Inicio]</text>
<text text-anchor="middle" x="1180.2695" y="-701.3843" font-family="Times,serif" font-size="14.00" fill="#000000">event: BACK </text>
<text text-anchor="middle" x="1180.2695" y="-687.3843" font-family="Times,serif" font-size="14.00" fill="#000000">hash: BACK </text>
</g>
<!-- n0&#45;&gt;n1 -->
<g id="edge1" class="edge">
<title>n0&#45;&gt;n1</title>
<path fill="none" stroke="#000000" d="M1488.6959,-616.3975C1466.7482,-602.1404 1433.8154,-583.4428 1401.8633,-575.5843 1306.2272,-552.0631 1055.2304,-556.1751 958.6758,-575.5843 923.9219,-582.5705 887.0485,-598.3583 859.7542,-611.8455"/>
<polygon fill="#000000" stroke="#000000" points="857.8722,-608.8747 850.5186,-616.502 861.0236,-615.1252 857.8722,-608.8747"/>
<text text-anchor="middle" x="1180.2695" y="-662.3843" font-family="Times,serif" font-size="14.00" fill="#000000">src: ACT[net.manslateresad.Inicio]</text>
<text text-anchor="middle" x="1180.2695" y="-648.3843" font-family="Times,serif" font-size="14.00" fill="#000000">tgt: ACT[net.manslateresad.TraductorMujer]</text>
<text text-anchor="middle" x="1180.2695" y="-634.3843" font-family="Times,serif" font-size="14.00" fill="#000000">class: class android.widget.ImageButton </text>
<text text-anchor="middle" x="1180.2695" y="-620.3843" font-family="Times,serif" font-size="14.00" fill="#000000">widgetID: net.manslateresad:id/TraductorMujer </text>
<text text-anchor="middle" x="1180.2695" y="-606.3843" font-family="Times,serif" font-size="14.00" fill="#000000">handler: Handler (android.view.ViewRootImpl$ViewRootHandler) {a94cbb2} </text>
<text text-anchor="middle" x="1180.2695" y="-592.3843" font-family="Times,serif" font-size="14.00" fill="#000000">event: CLICK </text>
<text text-anchor="middle" x="1180.2695" y="-578.3843" font-family="Times,serif" font-size="14.00" fill="#000000">hash: 210945655 </text>
</g>
<!-- n0&#45;&gt;n1 -->
<g id="edge13" class="edge">
<title>n0&#45;&gt;n1</title>
<path fill="none" stroke="#000000" d="M1509.5025,-616.4044C1497.8568,-578.4482 1465.1451,-491.4188 1401.8633,-456.5843 1229.307,-361.5981 1135.9754,-370.7769 958.6758,-456.5843 893.6596,-488.0501 849.5503,-565.7161 829.7419,-607.2879"/>
<polygon fill="#000000" stroke="#000000" points="826.4796,-606.0033 825.4481,-616.5478 832.8301,-608.948 826.4796,-606.0033"/>
<text text-anchor="middle" x="1180.2695" y="-543.3843" font-family="Times,serif" font-size="14.00" fill="#000000">src: ACT[net.manslateresad.Inicio]</text>
<text text-anchor="middle" x="1180.2695" y="-529.3843" font-family="Times,serif" font-size="14.00" fill="#000000">tgt: ACT[net.manslateresad.TraductorMujer]</text>
<text text-anchor="middle" x="1180.2695" y="-515.3843" font-family="Times,serif" font-size="14.00" fill="#000000">class: class android.widget.ImageButton </text>
<text text-anchor="middle" x="1180.2695" y="-501.3843" font-family="Times,serif" font-size="14.00" fill="#000000">widgetID: net.manslateresad:id/TraductorMujer </text>
<text text-anchor="middle" x="1180.2695" y="-487.3843" font-family="Times,serif" font-size="14.00" fill="#000000">handler: Handler (android.view.ViewRootImpl$ViewRootHandler) {a94cbb2} </text>
<text text-anchor="middle" x="1180.2695" y="-473.3843" font-family="Times,serif" font-size="14.00" fill="#000000">event: CLICK </text>
<text text-anchor="middle" x="1180.2695" y="-459.3843" font-family="Times,serif" font-size="14.00" fill="#000000">hash: 210945655 </text>
</g>
<!-- n3 -->
<g id="node4" class="node">
<title>n3</title>
<polygon fill="none" stroke="#000000" points="2345.8937,-652.5843 2088.2762,-652.5843 2088.2762,-616.5843 2345.8937,-616.5843 2345.8937,-652.5843"/>
<text text-anchor="middle" x="2217.085" y="-630.3843" font-family="Times,serif" font-size="14.00" fill="#000000">ACT[net.manslateresad.TraductorHombre]</text>
</g>
<!-- n0&#45;&gt;n3 -->
<g id="edge17" class="edge">
<title>n0&#45;&gt;n3</title>
<path fill="none" stroke="#000000" d="M1609.2998,-634.5843C1729.8783,-634.5843 1939.1268,-634.5843 2077.8599,-634.5843"/>
<polygon fill="#000000" stroke="#000000" points="2078.1404,-638.0844 2088.1404,-634.5843 2078.1403,-631.0844 2078.1404,-638.0844"/>
<text text-anchor="middle" x="1848.8369" y="-721.3843" font-family="Times,serif" font-size="14.00" fill="#000000">src: ACT[net.manslateresad.Inicio]</text>
<text text-anchor="middle" x="1848.8369" y="-707.3843" font-family="Times,serif" font-size="14.00" fill="#000000">tgt: ACT[net.manslateresad.TraductorHombre]</text>
<text text-anchor="middle" x="1848.8369" y="-693.3843" font-family="Times,serif" font-size="14.00" fill="#000000">class: class android.widget.ImageButton </text>
<text text-anchor="middle" x="1848.8369" y="-679.3843" font-family="Times,serif" font-size="14.00" fill="#000000">widgetID: net.manslateresad:id/TraductorHombre </text>
<text text-anchor="middle" x="1848.8369" y="-665.3843" font-family="Times,serif" font-size="14.00" fill="#000000">handler: Handler (android.view.ViewRootImpl$ViewRootHandler) {a94cbb2} </text>
<text text-anchor="middle" x="1848.8369" y="-651.3843" font-family="Times,serif" font-size="14.00" fill="#000000">event: CLICK </text>
<text text-anchor="middle" x="1848.8369" y="-637.3843" font-family="Times,serif" font-size="14.00" fill="#000000">hash: 213979981 </text>
</g>
<!-- n3&#45;&gt;n3 -->
<g id="edge22" class="edge">
<title>n3&#45;&gt;n3</title>
<path fill="none" stroke="#000000" d="M2150.5107,-652.737C2140.2686,-662.1234 2162.46,-670.5843 2217.085,-670.5843 2251.2256,-670.5843 2272.6968,-667.2793 2281.4987,-662.5089"/>
<polygon fill="#000000" stroke="#000000" points="2284.9178,-663.2568 2283.6592,-652.737 2278.0829,-661.7456 2284.9178,-663.2568"/>
<text text-anchor="middle" x="2217.085" y="-757.3843" font-family="Times,serif" font-size="14.00" fill="#000000">src: ACT[net.manslateresad.TraductorHombre]</text>
<text text-anchor="middle" x="2217.085" y="-743.3843" font-family="Times,serif" font-size="14.00" fill="#000000">tgt: ACT[net.manslateresad.TraductorHombre]</text>
<text text-anchor="middle" x="2217.085" y="-729.3843" font-family="Times,serif" font-size="14.00" fill="#000000">class: class android.widget.ImageButton </text>
<text text-anchor="middle" x="2217.085" y="-715.3843" font-family="Times,serif" font-size="14.00" fill="#000000">widgetID: net.manslateresad:id/micro </text>
<text text-anchor="middle" x="2217.085" y="-701.3843" font-family="Times,serif" font-size="14.00" fill="#000000">handler: Handler (android.view.ViewRootImpl$ViewRootHandler) {f3064ed} </text>
<text text-anchor="middle" x="2217.085" y="-687.3843" font-family="Times,serif" font-size="14.00" fill="#000000">event: CLICK </text>
<text text-anchor="middle" x="2217.085" y="-673.3843" font-family="Times,serif" font-size="14.00" fill="#000000">hash: 13205706 </text>
</g>
<!-- n4 -->
<g id="node5" class="node">
<title>n4</title>
<polygon fill="none" stroke="#000000" points="3052.3965,-652.5843 2826.5332,-652.5843 2826.5332,-616.5843 3052.3965,-616.5843 3052.3965,-652.5843"/>
<text text-anchor="middle" x="2939.4648" y="-630.3843" font-family="Times,serif" font-size="14.00" fill="#000000">ACT[net.manslateresad.listaHombre]</text>
</g>
<!-- n3&#45;&gt;n4 -->
<g id="edge18" class="edge">
<title>n3&#45;&gt;n4</title>
<path fill="none" stroke="#000000" d="M2226.7948,-652.74C2246.8518,-688.0455 2296.6544,-765.0719 2363.7393,-794.5843 2544.6754,-874.183 2629.8607,-879.214 2808.499,-794.5843 2866.6664,-767.0276 2907.6001,-699.5812 2926.9061,-661.6419"/>
<polygon fill="#000000" stroke="#000000" points="2930.0455,-663.189 2931.3457,-652.6742 2923.7722,-660.0832 2930.0455,-663.189"/>
<text text-anchor="middle" x="2586.1191" y="-942.3843" font-family="Times,serif" font-size="14.00" fill="#000000">src: ACT[net.manslateresad.TraductorHombre]</text>
<text text-anchor="middle" x="2586.1191" y="-928.3843" font-family="Times,serif" font-size="14.00" fill="#000000">tgt: ACT[net.manslateresad.listaHombre]</text>
<text text-anchor="middle" x="2586.1191" y="-914.3843" font-family="Times,serif" font-size="14.00" fill="#000000">class: class android.widget.ImageButton </text>
<text text-anchor="middle" x="2586.1191" y="-900.3843" font-family="Times,serif" font-size="14.00" fill="#000000">widgetID: net.manslateresad:id/frases </text>
<text text-anchor="middle" x="2586.1191" y="-886.3843" font-family="Times,serif" font-size="14.00" fill="#000000">handler: Handler (android.view.ViewRootImpl$ViewRootHandler) {f3064ed} </text>
<text text-anchor="middle" x="2586.1191" y="-872.3843" font-family="Times,serif" font-size="14.00" fill="#000000">event: CLICK </text>
<text text-anchor="middle" x="2586.1191" y="-858.3843" font-family="Times,serif" font-size="14.00" fill="#000000">hash: 21336635 </text>
</g>
<!-- n3&#45;&gt;n4 -->
<g id="edge20" class="edge">
<title>n3&#45;&gt;n4</title>
<path fill="none" stroke="#000000" d="M2271.4238,-652.6468C2298.7774,-660.8086 2332.6522,-669.5214 2363.7393,-673.5843 2461.7413,-686.3926 2710.6966,-687.8372 2808.499,-673.5843 2832.8341,-670.0379 2858.935,-662.969 2881.3817,-655.8118"/>
<polygon fill="#000000" stroke="#000000" points="2882.6709,-659.0727 2891.0891,-652.6397 2880.4966,-652.4189 2882.6709,-659.0727"/>
<text text-anchor="middle" x="2586.1191" y="-770.3843" font-family="Times,serif" font-size="14.00" fill="#000000">src: ACT[net.manslateresad.TraductorHombre]</text>
<text text-anchor="middle" x="2586.1191" y="-756.3843" font-family="Times,serif" font-size="14.00" fill="#000000">tgt: ACT[net.manslateresad.listaHombre]</text>
<text text-anchor="middle" x="2586.1191" y="-742.3843" font-family="Times,serif" font-size="14.00" fill="#000000">class: class android.widget.ImageButton </text>
<text text-anchor="middle" x="2586.1191" y="-728.3843" font-family="Times,serif" font-size="14.00" fill="#000000">widgetID: net.manslateresad:id/frases </text>
<text text-anchor="middle" x="2586.1191" y="-714.3843" font-family="Times,serif" font-size="14.00" fill="#000000">handler: Handler (android.view.ViewRootImpl$ViewRootHandler) {f3064ed} </text>
<text text-anchor="middle" x="2586.1191" y="-700.3843" font-family="Times,serif" font-size="14.00" fill="#000000">event: CLICK </text>
<text text-anchor="middle" x="2586.1191" y="-686.3843" font-family="Times,serif" font-size="14.00" fill="#000000">hash: 21336635 </text>
</g>
<!-- n4&#45;&gt;n3 -->
<g id="edge19" class="edge">
<title>n4&#45;&gt;n3</title>
<path fill="none" stroke="#000000" d="M2909.2506,-616.5132C2883.4911,-602.2215 2844.9493,-583.4157 2808.499,-575.5843 2711.8687,-554.8231 2460.7728,-556.7974 2363.7393,-575.5843 2327.5495,-582.5911 2288.9641,-598.487 2260.4592,-612.0154"/>
<polygon fill="#000000" stroke="#000000" points="2258.6745,-608.9906 2251.1968,-616.4963 2261.723,-615.292 2258.6745,-608.9906"/>
<text text-anchor="middle" x="2586.1191" y="-662.3843" font-family="Times,serif" font-size="14.00" fill="#000000">src: ACT[net.manslateresad.listaHombre]</text>
<text text-anchor="middle" x="2586.1191" y="-648.3843" font-family="Times,serif" font-size="14.00" fill="#000000">tgt: ACT[net.manslateresad.TraductorHombre]</text>
<text text-anchor="middle" x="2586.1191" y="-634.3843" font-family="Times,serif" font-size="14.00" fill="#000000">class: class android.widget.ListView </text>
<text text-anchor="middle" x="2586.1191" y="-620.3843" font-family="Times,serif" font-size="14.00" fill="#000000">widgetID: net.manslateresad:id/ListView01 </text>
<text text-anchor="middle" x="2586.1191" y="-606.3843" font-family="Times,serif" font-size="14.00" fill="#000000">handler: Handler (android.view.ViewRootImpl$ViewRootHandler) {2193991} </text>
<text text-anchor="middle" x="2586.1191" y="-592.3843" font-family="Times,serif" font-size="14.00" fill="#000000">event: CLICK </text>
<text text-anchor="middle" x="2586.1191" y="-578.3843" font-family="Times,serif" font-size="14.00" fill="#000000">hash: 28596806 </text>
</g>
<!-- n4&#45;&gt;n3 -->
<g id="edge21" class="edge">
<title>n4&#45;&gt;n3</title>
<path fill="none" stroke="#000000" d="M2928.5833,-616.2655C2909.0741,-585.4561 2864.8648,-524.3108 2808.499,-500.5843 2626.3109,-423.8945 2548.0212,-429.0721 2363.7393,-500.5843 2308.251,-522.117 2260.9279,-575.5149 2235.978,-608.0296"/>
<polygon fill="#000000" stroke="#000000" points="2233.0422,-606.1105 2229.8354,-616.2084 2238.6394,-610.3142 2233.0422,-606.1105"/>
<text text-anchor="middle" x="2586.1191" y="-545.3843" font-family="Times,serif" font-size="14.00" fill="#000000">src: ACT[net.manslateresad.listaHombre]</text>
<text text-anchor="middle" x="2586.1191" y="-531.3843" font-family="Times,serif" font-size="14.00" fill="#000000">tgt: ACT[net.manslateresad.TraductorHombre]</text>
<text text-anchor="middle" x="2586.1191" y="-517.3843" font-family="Times,serif" font-size="14.00" fill="#000000">event: BACK </text>
<text text-anchor="middle" x="2586.1191" y="-503.3843" font-family="Times,serif" font-size="14.00" fill="#000000">hash: BACK </text>
</g>
</g>
</svg>
