<?xml version="1.0" encoding="UTF-8" standalone="no"?>
<!DOCTYPE svg PUBLIC "-//W3C//DTD SVG 1.1//EN"
 "http://www.w3.org/Graphics/SVG/1.1/DTD/svg11.dtd">
<!-- Generated by graphviz version 2.40.1 (20161225.0304)
 -->
<!-- Title: G Pages: 1 -->
<svg width="2322pt" height="697pt"
 viewBox="0.00 0.00 2322.30 697.21" xmlns="http://www.w3.org/2000/svg" xmlns:xlink="http://www.w3.org/1999/xlink">
<g id="graph0" class="graph" transform="scale(1 1) rotate(0) translate(4 693.2063)">
<title>G</title>
<polygon fill="#ffffff" stroke="transparent" points="-4,4 -4,-693.2063 2318.3027,-693.2063 2318.3027,4 -4,4"/>
<!-- n1 -->
<g id="node1" class="node">
<title>n1</title>
<polygon fill="none" stroke="#000000" points="274.959,-181.2063 .0137,-181.2063 .0137,-145.2063 274.959,-145.2063 274.959,-181.2063"/>
<text text-anchor="middle" x="137.4863" y="-159.0063" font-family="Times,serif" font-size="14.00" fill="#000000">ACT[com.apk.com.lovePositions.AllActivity]</text>
</g>
<!-- n2 -->
<g id="node2" class="node">
<title>n2</title>
<polygon fill="none" stroke="#000000" points="1212.8455,-308.2063 926.6984,-308.2063 926.6984,-272.2063 1212.8455,-272.2063 1212.8455,-308.2063"/>
<text text-anchor="middle" x="1069.772" y="-286.0063" font-family="Times,serif" font-size="14.00" fill="#000000">ACT[com.apk.com.lovePositions.ViewActivity]</text>
</g>
<!-- n1&#45;&gt;n2 -->
<g id="edge2" class="edge">
<title>n1&#45;&gt;n2</title>
<path fill="none" stroke="#000000" d="M165.3612,-181.2728C195.4802,-199.7479 245.5485,-227.4865 292.9727,-240.2063 503.5548,-296.6876 757.2301,-301.8372 916.0486,-297.9221"/>
<polygon fill="#000000" stroke="#000000" points="916.4662,-301.4124 926.3711,-297.6515 916.2828,-294.4148 916.4662,-301.4124"/>
<text text-anchor="middle" x="542.915" y="-385.0063" font-family="Times,serif" font-size="14.00" fill="#000000">src: ACT[com.apk.com.lovePositions.AllActivity]</text>
<text text-anchor="middle" x="542.915" y="-371.0063" font-family="Times,serif" font-size="14.00" fill="#000000">tgt: ACT[com.apk.com.lovePositions.ViewActivity]</text>
<text text-anchor="middle" x="542.915" y="-357.0063" font-family="Times,serif" font-size="14.00" fill="#000000">class: class android.widget.GridView </text>
<text text-anchor="middle" x="542.915" y="-343.0063" font-family="Times,serif" font-size="14.00" fill="#000000">widgetID: com.droiddream.lovePositions:id/all_gird </text>
<text text-anchor="middle" x="542.915" y="-329.0063" font-family="Times,serif" font-size="14.00" fill="#000000">event: CLICK </text>
<text text-anchor="middle" x="542.915" y="-315.0063" font-family="Times,serif" font-size="14.00" fill="#000000">hash: 93253788 </text>
<text text-anchor="middle" x="542.915" y="-301.0063" font-family="Times,serif" font-size="14.00" fill="#000000">xpath: /FrameLayout/LinearLayout/FrameLayout/LinearLayout/GridView/LinearLayout </text>
</g>
<!-- n0 -->
<g id="node3" class="node">
<title>n0</title>
<polygon fill="none" stroke="#000000" points="2176.3577,-154.2063 1890.0877,-154.2063 1890.0877,-118.2063 2176.3577,-118.2063 2176.3577,-154.2063"/>
<text text-anchor="middle" x="2033.2227" y="-132.0063" font-family="Times,serif" font-size="14.00" fill="#000000">ACT[com.apk.com.lovePositions.MainActivity]</text>
</g>
<!-- n1&#45;&gt;n0 -->
<g id="edge9" class="edge">
<title>n1&#45;&gt;n0</title>
<path fill="none" stroke="#000000" d="M275.2216,-151.1362C281.2174,-150.7858 287.1548,-150.4726 292.9727,-150.2063 878.6436,-123.4051 1576.3111,-129.1904 1879.6915,-133.5603"/>
<polygon fill="#000000" stroke="#000000" points="1879.8256,-137.0625 1889.8755,-133.7086 1879.9276,-130.0632 1879.8256,-137.0625"/>
<text text-anchor="middle" x="1069.772" y="-178.0063" font-family="Times,serif" font-size="14.00" fill="#000000">src: ACT[com.apk.com.lovePositions.AllActivity]</text>
<text text-anchor="middle" x="1069.772" y="-164.0063" font-family="Times,serif" font-size="14.00" fill="#000000">tgt: ACT[com.apk.com.lovePositions.MainActivity]</text>
<text text-anchor="middle" x="1069.772" y="-150.0063" font-family="Times,serif" font-size="14.00" fill="#000000">event: BACK </text>
<text text-anchor="middle" x="1069.772" y="-136.0063" font-family="Times,serif" font-size="14.00" fill="#000000">hash: BACK </text>
</g>
<!-- n2&#45;&gt;n1 -->
<g id="edge8" class="edge">
<title>n2&#45;&gt;n1</title>
<path fill="none" stroke="#000000" d="M998.148,-272.136C944.2807,-256.7077 869.9088,-231.3991 810.8574,-196.2063 801.6628,-190.7266 802.8122,-184.1396 792.8574,-180.2063 704.0133,-145.1027 449.9041,-148.7252 285.4585,-155.3808"/>
<polygon fill="#000000" stroke="#000000" points="285.0967,-151.8926 275.2497,-155.8025 285.3857,-158.8867 285.0967,-151.8926"/>
<text text-anchor="middle" x="542.915" y="-225.0063" font-family="Times,serif" font-size="14.00" fill="#000000">src: ACT[com.apk.com.lovePositions.ViewActivity]</text>
<text text-anchor="middle" x="542.915" y="-211.0063" font-family="Times,serif" font-size="14.00" fill="#000000">tgt: ACT[com.apk.com.lovePositions.AllActivity]</text>
<text text-anchor="middle" x="542.915" y="-197.0063" font-family="Times,serif" font-size="14.00" fill="#000000">event: BACK </text>
<text text-anchor="middle" x="542.915" y="-183.0063" font-family="Times,serif" font-size="14.00" fill="#000000">hash: BACK </text>
</g>
<!-- n2&#45;&gt;n2 -->
<g id="edge6" class="edge">
<title>n2&#45;&gt;n2</title>
<path fill="none" stroke="#000000" d="M1022.1931,-308.3591C1014.8733,-317.7454 1030.7329,-326.2063 1069.772,-326.2063 1093.8664,-326.2063 1109.1313,-322.9834 1115.5667,-318.3091"/>
<polygon fill="#000000" stroke="#000000" points="1119.0308,-318.8198 1117.3508,-308.3591 1112.1407,-317.5843 1119.0308,-318.8198"/>
<text text-anchor="middle" x="1069.772" y="-413.0063" font-family="Times,serif" font-size="14.00" fill="#000000">src: ACT[com.apk.com.lovePositions.ViewActivity]</text>
<text text-anchor="middle" x="1069.772" y="-399.0063" font-family="Times,serif" font-size="14.00" fill="#000000">tgt: ACT[com.apk.com.lovePositions.ViewActivity]</text>
<text text-anchor="middle" x="1069.772" y="-385.0063" font-family="Times,serif" font-size="14.00" fill="#000000">class: class android.widget.ImageButton </text>
<text text-anchor="middle" x="1069.772" y="-371.0063" font-family="Times,serif" font-size="14.00" fill="#000000">widgetID: com.droiddream.lovePositions:id/next </text>
<text text-anchor="middle" x="1069.772" y="-357.0063" font-family="Times,serif" font-size="14.00" fill="#000000">event: CLICK </text>
<text text-anchor="middle" x="1069.772" y="-343.0063" font-family="Times,serif" font-size="14.00" fill="#000000">hash: 6555172 </text>
<text text-anchor="middle" x="1069.772" y="-329.0063" font-family="Times,serif" font-size="14.00" fill="#000000">xpath: /FrameLayout/LinearLayout/FrameLayout/LinearLayout/LinearLayout/ImageButton </text>
</g>
<!-- n2&#45;&gt;n2 -->
<g id="edge7" class="edge">
<title>n2&#45;&gt;n2</title>
<path fill="none" stroke="#000000" d="M1011.1306,-308.4325C942.6106,-346.5197 962.1577,-424.2063 1069.772,-424.2063 1172.552,-424.2063 1194.9994,-353.3426 1137.1143,-313.7944"/>
<polygon fill="#000000" stroke="#000000" points="1138.7629,-310.6992 1128.4133,-308.4325 1135.0904,-316.6585 1138.7629,-310.6992"/>
<text text-anchor="middle" x="1069.772" y="-511.0063" font-family="Times,serif" font-size="14.00" fill="#000000">src: ACT[com.apk.com.lovePositions.ViewActivity]</text>
<text text-anchor="middle" x="1069.772" y="-497.0063" font-family="Times,serif" font-size="14.00" fill="#000000">tgt: ACT[com.apk.com.lovePositions.ViewActivity]</text>
<text text-anchor="middle" x="1069.772" y="-483.0063" font-family="Times,serif" font-size="14.00" fill="#000000">class: class android.widget.ImageButton </text>
<text text-anchor="middle" x="1069.772" y="-469.0063" font-family="Times,serif" font-size="14.00" fill="#000000">widgetID: com.droiddream.lovePositions:id/pre </text>
<text text-anchor="middle" x="1069.772" y="-455.0063" font-family="Times,serif" font-size="14.00" fill="#000000">event: CLICK </text>
<text text-anchor="middle" x="1069.772" y="-441.0063" font-family="Times,serif" font-size="14.00" fill="#000000">hash: 227876535 </text>
<text text-anchor="middle" x="1069.772" y="-427.0063" font-family="Times,serif" font-size="14.00" fill="#000000">xpath: /FrameLayout/LinearLayout/FrameLayout/LinearLayout/LinearLayout/ImageButton </text>
</g>
<!-- n2&#45;&gt;n0 -->
<g id="edge11" class="edge">
<title>n2&#45;&gt;n0</title>
<path fill="none" stroke="#000000" d="M1213.1658,-291.0836C1425.5572,-291.6499 1805.1866,-289.5813 1864.5156,-268.2063 1924.8314,-246.4759 1980.4171,-194.1542 2010.2919,-162.2956"/>
<polygon fill="#000000" stroke="#000000" points="2013.118,-164.3937 2017.3205,-154.668 2007.9702,-159.6502 2013.118,-164.3937"/>
<text text-anchor="middle" x="1605.6011" y="-335.0063" font-family="Times,serif" font-size="14.00" fill="#000000">src: ACT[com.apk.com.lovePositions.ViewActivity]</text>
<text text-anchor="middle" x="1605.6011" y="-321.0063" font-family="Times,serif" font-size="14.00" fill="#000000">tgt: ACT[com.apk.com.lovePositions.MainActivity]</text>
<text text-anchor="middle" x="1605.6011" y="-307.0063" font-family="Times,serif" font-size="14.00" fill="#000000">event: BACK </text>
<text text-anchor="middle" x="1605.6011" y="-293.0063" font-family="Times,serif" font-size="14.00" fill="#000000">hash: BACK </text>
</g>
<!-- n3 -->
<g id="node4" class="node">
<title>n3</title>
<polygon fill="none" stroke="#000000" points="2184.137,-542.2063 1882.3083,-542.2063 1882.3083,-506.2063 2184.137,-506.2063 2184.137,-542.2063"/>
<text text-anchor="middle" x="2033.2227" y="-520.0063" font-family="Times,serif" font-size="14.00" fill="#000000">ACT[com.apk.com.lovePositions.ContentActivity]</text>
</g>
<!-- n2&#45;&gt;n3 -->
<g id="edge3" class="edge">
<title>n2&#45;&gt;n3</title>
<path fill="none" stroke="#000000" d="M1141.55,-308.246C1197.1489,-321.4229 1276.303,-338.4555 1346.6865,-347.2063 1375.2631,-350.7593 1843.1958,-350.8488 1864.5156,-370.2063 1906.7223,-408.5283 1842.9464,-456.1667 1882.5156,-497.2063 1883.2997,-498.0196 1884.0993,-498.8133 1884.9137,-499.5878"/>
<polygon fill="#000000" stroke="#000000" points="1882.7113,-502.3087 1892.6223,-506.0536 1887.2099,-496.9456 1882.7113,-502.3087"/>
<text text-anchor="middle" x="1605.6011" y="-457.0063" font-family="Times,serif" font-size="14.00" fill="#000000">src: ACT[com.apk.com.lovePositions.ViewActivity]</text>
<text text-anchor="middle" x="1605.6011" y="-443.0063" font-family="Times,serif" font-size="14.00" fill="#000000">tgt: ACT[com.apk.com.lovePositions.ContentActivity]</text>
<text text-anchor="middle" x="1605.6011" y="-429.0063" font-family="Times,serif" font-size="14.00" fill="#000000">class: class android.widget.ImageButton </text>
<text text-anchor="middle" x="1605.6011" y="-415.0063" font-family="Times,serif" font-size="14.00" fill="#000000">widgetID: com.droiddream.lovePositions:id/des </text>
<text text-anchor="middle" x="1605.6011" y="-401.0063" font-family="Times,serif" font-size="14.00" fill="#000000">event: CLICK </text>
<text text-anchor="middle" x="1605.6011" y="-387.0063" font-family="Times,serif" font-size="14.00" fill="#000000">hash: 61678929 </text>
<text text-anchor="middle" x="1605.6011" y="-373.0063" font-family="Times,serif" font-size="14.00" fill="#000000">xpath: /FrameLayout/LinearLayout/FrameLayout/LinearLayout/ImageButton </text>
</g>
<!-- n0&#45;&gt;n1 -->
<g id="edge1" class="edge">
<title>n0&#45;&gt;n1</title>
<path fill="none" stroke="#000000" d="M1953.7486,-118.1558C1823.8489,-89.6747 1557.5671,-35.559 1328.6865,-16.2063 1099.3586,3.1842 1039.8321,6.9864 810.8574,-16.2063 587.3758,-38.8427 329.5658,-107.3253 207.9426,-142.2449"/>
<polygon fill="#000000" stroke="#000000" points="206.6506,-138.9747 198.0119,-145.1085 208.5901,-145.7007 206.6506,-138.9747"/>
<text text-anchor="middle" x="1069.772" y="-103.0063" font-family="Times,serif" font-size="14.00" fill="#000000">src: ACT[com.apk.com.lovePositions.MainActivity]</text>
<text text-anchor="middle" x="1069.772" y="-89.0063" font-family="Times,serif" font-size="14.00" fill="#000000">tgt: ACT[com.apk.com.lovePositions.AllActivity]</text>
<text text-anchor="middle" x="1069.772" y="-75.0063" font-family="Times,serif" font-size="14.00" fill="#000000">class: class android.widget.ImageButton </text>
<text text-anchor="middle" x="1069.772" y="-61.0063" font-family="Times,serif" font-size="14.00" fill="#000000">widgetID: com.droiddream.lovePositions:id/all </text>
<text text-anchor="middle" x="1069.772" y="-47.0063" font-family="Times,serif" font-size="14.00" fill="#000000">event: CLICK </text>
<text text-anchor="middle" x="1069.772" y="-33.0063" font-family="Times,serif" font-size="14.00" fill="#000000">hash: 3063763 </text>
<text text-anchor="middle" x="1069.772" y="-19.0063" font-family="Times,serif" font-size="14.00" fill="#000000">xpath: /FrameLayout/LinearLayout/FrameLayout/LinearLayout/LinearLayout/ImageButton </text>
</g>
<!-- n0&#45;&gt;n2 -->
<g id="edge10" class="edge">
<title>n0&#45;&gt;n2</title>
<path fill="none" stroke="#000000" d="M1889.6564,-145.7702C1881.151,-146.2737 1872.7218,-146.7566 1864.5156,-147.2063 1807.0086,-150.3579 1397.0957,-142.3514 1346.6865,-170.2063 1334.3851,-177.0038 1339.8174,-187.6253 1328.6865,-196.2063 1282.1654,-232.0703 1220.6789,-255.1591 1169.2987,-269.4754"/>
<polygon fill="#000000" stroke="#000000" points="1168.2314,-266.1384 1159.4971,-272.1352 1170.0647,-272.8941 1168.2314,-266.1384"/>
<text text-anchor="middle" x="1605.6011" y="-257.0063" font-family="Times,serif" font-size="14.00" fill="#000000">src: ACT[com.apk.com.lovePositions.MainActivity]</text>
<text text-anchor="middle" x="1605.6011" y="-243.0063" font-family="Times,serif" font-size="14.00" fill="#000000">tgt: ACT[com.apk.com.lovePositions.ViewActivity]</text>
<text text-anchor="middle" x="1605.6011" y="-229.0063" font-family="Times,serif" font-size="14.00" fill="#000000">class: class android.widget.ImageButton </text>
<text text-anchor="middle" x="1605.6011" y="-215.0063" font-family="Times,serif" font-size="14.00" fill="#000000">widgetID: com.droiddream.lovePositions:id/random </text>
<text text-anchor="middle" x="1605.6011" y="-201.0063" font-family="Times,serif" font-size="14.00" fill="#000000">event: CLICK </text>
<text text-anchor="middle" x="1605.6011" y="-187.0063" font-family="Times,serif" font-size="14.00" fill="#000000">hash: 42739472 </text>
<text text-anchor="middle" x="1605.6011" y="-173.0063" font-family="Times,serif" font-size="14.00" fill="#000000">xpath: /FrameLayout/LinearLayout/FrameLayout/LinearLayout/LinearLayout/ImageButton </text>
</g>
<!-- n0&#45;&gt;n0 -->
<g id="edge12" class="edge">
<title>n0&#45;&gt;n0</title>
<path fill="none" stroke="#000000" d="M2007.5337,-154.3591C2003.5815,-163.7454 2012.1445,-172.2063 2033.2227,-172.2063 2046.0671,-172.2063 2054.2643,-169.0645 2057.8141,-164.4859"/>
<polygon fill="#000000" stroke="#000000" points="2061.3137,-164.678 2058.9116,-154.3591 2054.3544,-163.9237 2061.3137,-164.678"/>
<text text-anchor="middle" x="2033.2227" y="-245.0063" font-family="Times,serif" font-size="14.00" fill="#000000">src: ACT[com.apk.com.lovePositions.MainActivity]</text>
<text text-anchor="middle" x="2033.2227" y="-231.0063" font-family="Times,serif" font-size="14.00" fill="#000000">tgt: ACT[com.apk.com.lovePositions.MainActivity]</text>
<text text-anchor="middle" x="2033.2227" y="-217.0063" font-family="Times,serif" font-size="14.00" fill="#000000">class: class android.widget.ImageButton </text>
<text text-anchor="middle" x="2033.2227" y="-203.0063" font-family="Times,serif" font-size="14.00" fill="#000000">widgetID: com.droiddream.lovePositions:id/about </text>
<text text-anchor="middle" x="2033.2227" y="-189.0063" font-family="Times,serif" font-size="14.00" fill="#000000">event: CLICK </text>
<text text-anchor="middle" x="2033.2227" y="-175.0063" font-family="Times,serif" font-size="14.00" fill="#000000">hash: 267629065 </text>
</g>
<!-- n0&#45;&gt;n0 -->
<g id="edge13" class="edge">
<title>n0&#45;&gt;n0</title>
<path fill="none" stroke="#000000" d="M2000.5142,-154.2169C1964.771,-189.1937 1975.6738,-256.2063 2033.2227,-256.2063 2086.7251,-256.2063 2099.9105,-198.2861 2072.7788,-162.0356"/>
<polygon fill="#000000" stroke="#000000" points="2075.1526,-159.4336 2065.9311,-154.2169 2069.8867,-164.0456 2075.1526,-159.4336"/>
<text text-anchor="middle" x="2033.2227" y="-329.0063" font-family="Times,serif" font-size="14.00" fill="#000000">src: ACT[com.apk.com.lovePositions.MainActivity]</text>
<text text-anchor="middle" x="2033.2227" y="-315.0063" font-family="Times,serif" font-size="14.00" fill="#000000">tgt: ACT[com.apk.com.lovePositions.MainActivity]</text>
<text text-anchor="middle" x="2033.2227" y="-301.0063" font-family="Times,serif" font-size="14.00" fill="#000000">dialogClass: class android.app.AlertDialog </text>
<text text-anchor="middle" x="2033.2227" y="-287.0063" font-family="Times,serif" font-size="14.00" fill="#000000">dialogTitle: ABout </text>
<text text-anchor="middle" x="2033.2227" y="-273.0063" font-family="Times,serif" font-size="14.00" fill="#000000">event: CLICK </text>
<text text-anchor="middle" x="2033.2227" y="-259.0063" font-family="Times,serif" font-size="14.00" fill="#000000">hash: 57791791 </text>
</g>
<!-- n0&#45;&gt;n0 -->
<g id="edge14" class="edge">
<title>n0&#45;&gt;n0</title>
<path fill="none" stroke="#000000" d="M1995.0609,-154.2943C1928.7706,-206.6668 1941.4912,-340.2063 2033.2227,-340.2063 2121.1917,-340.2063 2136.4983,-217.3966 2079.1424,-161.1334"/>
<polygon fill="#000000" stroke="#000000" points="2081.2003,-158.2817 2071.3844,-154.2943 2076.5713,-163.5327 2081.2003,-158.2817"/>
<text text-anchor="middle" x="2033.2227" y="-441.0063" font-family="Times,serif" font-size="14.00" fill="#000000">src: ACT[com.apk.com.lovePositions.MainActivity]</text>
<text text-anchor="middle" x="2033.2227" y="-427.0063" font-family="Times,serif" font-size="14.00" fill="#000000">tgt: ACT[com.apk.com.lovePositions.MainActivity]</text>
<text text-anchor="middle" x="2033.2227" y="-413.0063" font-family="Times,serif" font-size="14.00" fill="#000000">class: class android.widget.Button </text>
<text text-anchor="middle" x="2033.2227" y="-399.0063" font-family="Times,serif" font-size="14.00" fill="#000000">widgetID: android:id/button1 </text>
<text text-anchor="middle" x="2033.2227" y="-385.0063" font-family="Times,serif" font-size="14.00" fill="#000000">buttonText: OK </text>
<text text-anchor="middle" x="2033.2227" y="-371.0063" font-family="Times,serif" font-size="14.00" fill="#000000">event: CLICK </text>
<text text-anchor="middle" x="2033.2227" y="-357.0063" font-family="Times,serif" font-size="14.00" fill="#000000">hash: 189018046 </text>
<text text-anchor="middle" x="2033.2227" y="-343.0063" font-family="Times,serif" font-size="14.00" fill="#000000">xpath: /FrameLayout/FrameLayout/FrameLayout/LinearLayout/LinearLayout/LinearLayout/Button </text>
</g>
<!-- n3&#45;&gt;n2 -->
<g id="edge4" class="edge">
<title>n3&#45;&gt;n2</title>
<path fill="none" stroke="#000000" d="M1970.7776,-542.2251C1846.7261,-574.6521 1562.6025,-631.9618 1346.6865,-547.2063 1225.8525,-499.7742 1126.3458,-372.0787 1087.4099,-316.5711"/>
<polygon fill="#000000" stroke="#000000" points="1090.2571,-314.5349 1081.6869,-308.3056 1084.502,-318.5197 1090.2571,-314.5349"/>
<text text-anchor="middle" x="1605.6011" y="-678.0063" font-family="Times,serif" font-size="14.00" fill="#000000">src: ACT[com.apk.com.lovePositions.ContentActivity]</text>
<text text-anchor="middle" x="1605.6011" y="-664.0063" font-family="Times,serif" font-size="14.00" fill="#000000">tgt: ACT[com.apk.com.lovePositions.ViewActivity]</text>
<text text-anchor="middle" x="1605.6011" y="-650.0063" font-family="Times,serif" font-size="14.00" fill="#000000">class: class android.widget.ImageButton </text>
<text text-anchor="middle" x="1605.6011" y="-636.0063" font-family="Times,serif" font-size="14.00" fill="#000000">widgetID: com.droiddream.lovePositions:id/back </text>
<text text-anchor="middle" x="1605.6011" y="-622.0063" font-family="Times,serif" font-size="14.00" fill="#000000">event: CLICK </text>
<text text-anchor="middle" x="1605.6011" y="-608.0063" font-family="Times,serif" font-size="14.00" fill="#000000">hash: 151690789 </text>
<text text-anchor="middle" x="1605.6011" y="-594.0063" font-family="Times,serif" font-size="14.00" fill="#000000">xpath: /FrameLayout/LinearLayout/FrameLayout/ScrollView/LinearLayout/ImageButton </text>
</g>
<!-- n3&#45;&gt;n2 -->
<g id="edge5" class="edge">
<title>n3&#45;&gt;n2</title>
<path fill="none" stroke="#000000" d="M1912.1917,-506.1878C1902.0418,-503.5736 1892.0308,-500.5956 1882.5156,-497.2063 1873.8945,-494.1355 1873.3311,-489.664 1864.5156,-487.2063 1753.595,-456.2827 1456.5576,-502.6738 1346.6865,-468.2063 1244.6205,-436.1874 1143.7745,-355.8364 1096.9256,-314.9446"/>
<polygon fill="#000000" stroke="#000000" points="1099.1621,-312.2504 1089.3471,-308.2608 1094.532,-317.5003 1099.1621,-312.2504"/>
<text text-anchor="middle" x="1605.6011" y="-532.0063" font-family="Times,serif" font-size="14.00" fill="#000000">src: ACT[com.apk.com.lovePositions.ContentActivity]</text>
<text text-anchor="middle" x="1605.6011" y="-518.0063" font-family="Times,serif" font-size="14.00" fill="#000000">tgt: ACT[com.apk.com.lovePositions.ViewActivity]</text>
<text text-anchor="middle" x="1605.6011" y="-504.0063" font-family="Times,serif" font-size="14.00" fill="#000000">event: BACK </text>
<text text-anchor="middle" x="1605.6011" y="-490.0063" font-family="Times,serif" font-size="14.00" fill="#000000">hash: BACK </text>
</g>
</g>
</svg>
